<?xml version="1.0" standalone="no"?>
<!DOCTYPE svg PUBLIC "-//W3C//DTD SVG 1.1//EN" "http://www.w3.org/Graphics/SVG/1.1/DTD/svg11.dtd" >
<svg xmlns="http://www.w3.org/2000/svg" xmlns:xlink="http://www.w3.org/1999/xlink" version="1.1">
<metadata>
Created by FontForge 20170731 at Mon Jun  6 21:11:27 2011
 By Aleksey,,,
Made with yourfonts.com. Creative Commons Attribution-NonCommercial-ShareAlike
</metadata>
<defs>
<font id="ModesLowercaseComicFont" horiz-adv-x="1580" >
  <font-face 
    font-family="Modes Lowercase Comic Font"
    font-weight="400"
    font-stretch="normal"
    units-per-em="2048"
    panose-1="3 0 6 0 0 0 0 0 0 0"
    ascent="1638"
    descent="-410"
    x-height="1252"
    cap-height="1740"
    bbox="60 -1091 9131 2530"
    underline-thickness="150"
    underline-position="-442"
    unicode-range="U+0020-2122"
  />
<missing-glyph horiz-adv-x="1560" 
d="M60 0v1972h1420v-1972h-1420zM140 80h1260v1812h-1260v-1812z" />
    <glyph glyph-name=".notdef" horiz-adv-x="1560" 
d="M60 0v1972h1420v-1972h-1420zM140 80h1260v1812h-1260v-1812z" />
    <glyph glyph-name=".null" horiz-adv-x="0" 
 />
    <glyph glyph-name="nonmarkingreturn" horiz-adv-x="550" 
 />
    <glyph glyph-name="space" unicode=" " horiz-adv-x="819" 
 />
    <glyph glyph-name="space" unicode="&#xa0;" horiz-adv-x="819" 
 />
    <glyph glyph-name="exclam" unicode="!" horiz-adv-x="697" 
d="M408 1856h162q47 0 47 -70q-93 -389 -186 -1299l-162 -47q-70 85 -70 163v69q59 0 163 1160zM222 139q125 -47 140 -47v-92q0 -163 -116 -163q-186 0 -186 139v70q38 93 162 93z" />
    <glyph glyph-name="quotedbl" unicode="&#x22;" horiz-adv-x="790" 
d="M524 2088h93q93 0 93 -557v-186l-116 -23q-116 0 -116 742zM153 2041q139 0 139 -139v-139q0 -97 23 -255q-30 -108 -93 -116q-92 0 -139 92l23 116q-46 339 -46 372z" />
    <glyph glyph-name="numbersign" unicode="#" horiz-adv-x="2089" 
d="M1754 1948h92q47 -7 47 -46q0 -56 -139 -510v-24l46 24q116 0 139 -93q-41 -232 -93 -232h-116l-23 93h-46q-116 -441 -116 -511h23q335 47 348 47q93 -24 93 -140v-23q0 -120 -70 -139h-69q-85 93 -186 93q-45 -23 -70 -23q-45 23 -69 23q-92 0 -186 -511l-93 -92h-69
q-34 0 -70 69v163q95 0 163 348l-209 46q-41 -23 -93 -23h-46q-24 0 -24 23q-232 0 -232 -186q-37 -185 -92 -185h-93q-34 0 -70 69v70q93 131 93 186h-23l-371 -24l-70 116q3 67 139 116l163 -23h185q75 0 186 441h-23q-83 0 -441 -46l-47 69q0 116 140 163h371
q74 0 209 556q56 47 92 47q106 -45 116 -93l-162 -487q580 0 580 116q0 66 116 417v70zM918 1113q-92 -271 -92 -417l139 -24h116q52 0 93 24q40 -24 92 -24h47q36 0 139 464v24q-82 0 -534 -47z" />
    <glyph glyph-name="dollar" unicode="$" horiz-adv-x="1602" 
d="M1034 2018h116q0 -104 24 -139q-24 -40 -47 -279h23q45 24 70 24q0 -24 23 -24q0 40 116 70q145 -47 163 -116v-93q0 -69 -186 -93l-116 70h-116q-61 0 -139 -394q464 -116 464 -256l46 -69v-116q0 -441 -580 -511h-69q0 -92 -116 -162q-186 0 -186 162v70
q-456 161 -464 209v46q0 139 93 139q357 -208 487 -208q70 323 70 533q-372 74 -372 209q-23 0 -23 23v23q0 220 580 464q47 151 47 209l-24 47q47 144 116 162zM594 1136q84 -46 185 -46h23q0 30 47 255v23q-279 -103 -279 -232h24zM918 812q-92 -476 -92 -511l46 -23
q229 0 371 255v139q0 70 -255 140h-70z" />
    <glyph glyph-name="percent" unicode="%" horiz-adv-x="1880" 
d="M1545 1832h46q125 0 163 -92v-24q0 -139 -279 -301q0 -84 -417 -511q-766 -846 -766 -928h-162q-34 0 -70 70v116q417 323 998 1021q352 384 371 533q95 116 116 116zM176 1531q232 -23 348 -23h93q31 0 116 -116v-93q0 -257 -302 -371q-371 87 -371 324q20 170 116 279z
M292 1229q0 -33 70 -69h69q31 0 93 139v23q0 46 -46 46q-110 -28 -186 -139zM1243 742q116 -6 116 -46l116 23q325 -75 325 -325v-116q0 -275 -534 -302q-348 70 -348 325q98 441 325 441zM1266 440h-23l-46 24l-47 -70v-46q0 -163 163 -163h46q123 0 232 186q0 73 -93 185
q-104 0 -232 -116z" />
    <glyph glyph-name="ampersand" unicode="&#x26;" horiz-adv-x="1068" 
d="M617 1786q139 -15 139 -70v-23q0 -301 -139 -371h-23q-37 0 -93 93v23l23 139q-23 41 -23 93zM733 1206l46 -23q45 23 70 23q93 0 139 -186q-111 -139 -232 -139q-44 116 -186 116q-189 0 -232 -162l93 -47q197 24 325 24q93 -38 93 -163q0 -82 -70 -139
q-224 0 -441 -116v-23h302q139 61 139 116q186 -38 186 -93v-116q0 -15 -116 -116l-93 23q-206 -46 -278 -46q-418 0 -418 232v23q0 35 209 232q-150 0 -186 209v23q0 278 650 348zM362 23h139q46 -7 46 -47v-139q0 -52 -23 -93q23 -40 23 -92v-24q0 -33 -69 -69h-116
q0 40 -70 116q0 24 23 69l-23 140q14 139 70 139z" />
    <glyph glyph-name="quotesingle" unicode="'" horiz-adv-x="395" 
d="M199 1856q116 -33 116 -163v-232q0 -23 -23 -23q23 -45 23 -70q0 -24 -23 -69l23 -139q0 -62 -116 -116q-98 0 -139 162q46 291 46 325l-23 93q23 232 116 232z" />
    <glyph glyph-name="parenleft" unicode="(" horiz-adv-x="882" 
d="M594 2227h139q69 -15 69 -186q0 -28 -255 -255q-250 -431 -278 -882v-46q0 -598 348 -905l116 -139v-116q0 -46 -47 -46h-116q-487 450 -487 1090q-23 0 -23 23q0 688 464 1323q30 0 70 139z" />
    <glyph glyph-name="parenright" unicode=")" horiz-adv-x="813" 
d="M199 2111q145 0 279 -395q116 -151 208 -580l47 -487q-204 -905 -348 -905l-47 -23q-139 55 -139 93q0 146 163 255q162 431 162 743v92q-116 625 -348 905q-116 60 -116 186q104 116 139 116z" />
    <glyph glyph-name="asterisk" unicode="*" horiz-adv-x="1416" 
d="M710 1670q76 -23 92 -93q-46 -231 -46 -417v-140q65 0 302 302h69l116 -23v-23q0 -246 -301 -348l-93 -116q381 -243 487 -348v-93q0 -34 -70 -70q-65 0 -510 279l-23 -47v-162q0 -52 23 -93l-23 -46l23 -47q-40 -278 -139 -278h-23q-125 0 -140 116q70 182 70 232v185
q0 24 23 24q-23 40 -23 92h-23q-163 -92 -163 -185h-92q-37 0 -93 93v69q0 52 278 255q-108 121 -348 209l-23 116v23q0 34 70 70h116q249 -209 301 -209q0 149 23 302l-23 93q0 278 163 278z" />
    <glyph glyph-name="plus" unicode="+" horiz-adv-x="1532" 
d="M640 1461h70q69 -14 69 -162q0 -122 -23 -395q0 -89 464 -139q41 0 116 47q116 -30 116 -70v-23q0 -121 -70 -139h-510l-116 23q0 -557 -116 -557h-46q-37 0 -93 93q0 27 46 255v209q-205 23 -255 23l-162 -23l-70 116v93q0 33 70 69q135 -23 417 -23l23 139v395
q0 33 70 69z" />
    <glyph glyph-name="comma" unicode="," horiz-adv-x="604" 
d="M338 603h24q162 0 162 -302q0 -187 -302 -394h-92q-47 0 -70 162q186 96 186 139v24q-148 0 -186 139q80 232 278 232z" />
    <glyph glyph-name="hyphen" unicode="-" horiz-adv-x="1346" 
d="M153 858q203 -23 232 -23q49 0 255 23q128 -23 186 -23l46 23l93 -23l232 23q45 -23 69 -23q0 -209 -139 -209v-23q-464 23 -696 23h-301q-34 0 -70 70v92q0 35 93 70z" />
    <glyph glyph-name="period" unicode="." horiz-adv-x="558" 
d="M315 742q163 -87 163 -209v-46q-124 -186 -256 -186q-116 70 -162 70l23 46q-23 45 -23 70q145 255 186 255h69z" />
    <glyph glyph-name="slash" unicode="/" horiz-adv-x="2019" 
d="M1777 1786q144 -47 162 -116v-139l-69 -116l-116 23q-777 -636 -1508 -1554h-24q-162 0 -162 185q113 0 928 928q230 230 626 580q0 127 163 209z" />
    <glyph glyph-name="zero" unicode="0" horiz-adv-x="1880" 
d="M918 1763q93 -5 93 -47q118 47 163 47q147 0 417 -232q209 -172 209 -441v-278q0 -336 -232 -720q-40 0 -209 -185q-105 -139 -557 -139q-639 0 -742 649v47q93 566 325 904q330 395 533 395zM942 1484h-47l-69 47q-361 -216 -511 -766q-46 -224 -46 -255
q0 -402 417 -534q24 0 24 24l162 -24q657 0 742 1021q0 407 -440 580h-93z" />
    <glyph glyph-name="one" unicode="1" horiz-adv-x="697" 
d="M524 1879q93 -47 93 -139q-139 -723 -139 -1369h-24q47 -85 47 -186v-93q-36 0 -93 -46h-139l-70 139q44 192 93 209q0 23 -23 23l23 116v70q0 232 116 997h-23q-44 0 -209 -185h-23q-93 35 -93 69v47q255 346 325 348h139z" />
    <glyph glyph-name="two" unicode="2" horiz-adv-x="1370" 
d="M246 1600q313 -23 464 -23h278q209 -102 209 -371q-152 -551 -511 -812q0 -51 -255 -325v-46q520 34 580 93h186q36 0 93 -93v-47q0 -185 -232 -185q-85 46 -186 46h-255q-190 0 -464 -93h-23q-70 15 -70 186v93q357 288 441 464q220 163 301 348q79 0 163 441
q-93 92 -139 92q-24 0 -24 -23l-417 47q-39 -24 -116 -24q-61 0 -93 163q33 0 70 69z" />
    <glyph glyph-name="three" unicode="3" horiz-adv-x="1532" 
d="M965 1832q417 -82 417 -417q-51 -418 -232 -418v-23q170 -100 256 -209q5 -116 46 -116q0 -440 -441 -696q-205 23 -255 23q-35 0 -325 -23q-371 145 -371 348v93q72 122 93 209h116q46 0 46 -70q-46 -151 -46 -209q119 -139 255 -139h162q24 0 24 -23l46 23q23 0 23 -23
l47 23q40 -23 92 -23q0 26 186 116q116 230 116 278q-38 209 -302 209q-185 -93 -255 -93q0 32 -116 116q0 209 325 209q214 169 302 395q-102 232 -279 232q-381 0 -626 -186q-96 32 -139 116v70q111 126 580 208h255z" />
    <glyph glyph-name="four" unicode="4" horiz-adv-x="1671" 
d="M802 1925q93 -23 93 -139v-23q0 -100 -209 -279l-371 -626l70 -46h139q696 109 696 162q124 835 186 835q40 23 92 23h24q39 0 69 -116q-255 -840 -371 -1647v-255q0 -162 -186 -162l-92 116q139 548 139 858v23l-116 23q-422 -92 -580 -92q-325 68 -325 278
q167 200 464 766q57 0 139 255q40 0 139 46z" />
    <glyph glyph-name="five" unicode="5" horiz-adv-x="1880" 
d="M663 1809q29 0 163 -139q52 0 92 23l47 -23q295 29 325 46q23 0 23 -23q412 116 441 116q46 -85 46 -185v-116q-25 0 -70 -24q-119 47 -185 47q-992 -47 -998 -255l-162 -348h46q179 0 650 116q580 -201 580 -325q0 -507 -348 -835q-174 -116 -302 -116h-185
q-24 0 -24 23l-46 -23q-557 46 -557 162v162q7 47 47 47h69q126 -209 627 -209q316 116 417 348q70 155 70 348q-191 186 -395 186q-788 -93 -788 -163q-186 0 -186 163v69q133 0 487 835q9 63 116 93z" />
    <glyph glyph-name="six" unicode="6" horiz-adv-x="1787" 
d="M1174 1832q46 -76 46 -139v-93q0 -39 -348 -92q-319 -207 -418 -464q-185 -240 -185 -511v-23q0 -318 464 -534q0 -39 348 -92q417 146 417 487q0 178 -371 232h-93q-219 0 -417 -186q-23 -40 -23 -93v-23h46v-116l-116 -23q-139 0 -139 162v47q151 417 626 417h116
q23 0 23 -23q24 0 24 23q533 -103 533 -232v-185q0 -280 -232 -511q-267 -185 -533 -185q-575 154 -812 487q-47 58 -70 464q30 262 441 835q561 371 673 371z" />
    <glyph glyph-name="seven" unicode="7" horiz-adv-x="1810" 
d="M1545 1879q185 0 185 -93q0 -164 -162 -394q-134 -378 -464 -928q-162 -290 -162 -534q-52 -162 -209 -162q-116 0 -116 232q0 45 255 394q0 31 348 650q209 414 209 533h-23q-859 -46 -859 -93l-162 24l-279 -24l-46 70v70q38 92 162 92h372q23 0 23 -23q114 40 742 70
q0 24 186 116z" />
    <glyph glyph-name="eight" unicode="8" horiz-adv-x="1787" 
d="M1081 1716q388 0 626 -371v-23q0 -316 -441 -510v-47q209 0 418 -510v-70q0 -359 -766 -557l-116 24q-23 0 -23 -24q-673 98 -673 372q-23 0 -46 116q186 434 394 603q-301 298 -301 441v23q0 335 580 487q0 30 348 46zM826 1438q-41 23 -93 23q-23 -69 -139 -69l-47 23
l-185 -139v-70q0 -272 394 -348q505 85 696 302q0 40 46 116q0 188 -371 278h-116q-154 -116 -185 -116zM292 116q0 -279 510 -279h186q67 52 371 163q70 85 116 208q0 280 -417 488h-24q-580 -104 -580 -256q-53 0 -162 -324z" />
    <glyph glyph-name="nine" unicode="9" horiz-adv-x="1648" 
d="M779 1902q191 0 395 -232q57 0 278 -232q116 -67 116 -139q-186 -568 -186 -673q-92 -458 -139 -858q-69 -50 -69 -116q-163 52 -163 208q209 769 209 952q-38 0 -278 -24q-882 102 -882 511v46q0 186 441 487q174 70 278 70zM246 1299q0 -247 742 -325h116
q186 67 186 209v93q0 254 -511 417h-23q-295 0 -510 -371v-23z" />
    <glyph glyph-name="colon" unicode=":" horiz-adv-x="627" 
d="M431 1531h23q32 -2 93 -116v-47q-46 -208 -116 -208h-139q-70 0 -116 208q79 163 255 163zM269 533h139q70 -23 70 -139q0 -171 -232 -302q-186 58 -186 186v93q84 0 209 162z" />
    <glyph glyph-name="semicolon" unicode=";" horiz-adv-x="813" 
d="M617 1252l116 -162q-74 -278 -279 -278q-139 58 -139 208q129 209 186 209zM454 324q232 -54 232 -278q0 -114 -116 -302q0 -177 -278 -208h-70q-116 0 -162 116v23q61 114 93 116l69 -47q112 0 163 116v24q-139 0 -139 255q112 185 208 185z" />
    <glyph glyph-name="less" unicode="&#x3c;" horiz-adv-x="1764" 
d="M1591 1740q93 -35 93 -70v-139q-59 -116 -186 -116l-46 23q-363 -316 -580 -371q-417 -325 -418 -348q568 -243 928 -441q140 -16 140 -186q0 -36 -93 -92h-23q-96 0 -256 162q-380 232 -835 371q-255 0 -255 163v69q83 23 302 186q32 0 533 325q84 14 627 464h69z" />
    <glyph glyph-name="equal" unicode="=" horiz-adv-x="1370" 
d="M1127 1183q163 -31 163 -70v-162q0 -35 -93 -70q-42 0 -209 70l-696 -93q-186 47 -186 93v116l47 69q315 -23 441 -23q172 0 533 70zM269 719h23q23 0 23 -23q45 23 70 23q185 0 394 -47q122 24 232 24h23q140 0 186 -163q0 -78 -162 -116q-247 70 -372 70h-278
q-117 0 -278 -47q0 35 -70 93v93q31 93 209 93z" />
    <glyph glyph-name="greater" unicode="&#x3e;" horiz-adv-x="1532" 
d="M246 1647q138 0 324 -163q406 -359 836 -626l46 -93q-52 -185 -162 -185q-18 0 -140 23q-526 -197 -788 -441q-64 -162 -186 -162q-115 91 -116 208q589 403 1021 580v24q-679 569 -882 672l-23 47v46q0 34 70 70z" />
    <glyph glyph-name="question" unicode="?" horiz-adv-x="1370" 
d="M640 1809q626 0 626 -417q24 0 24 -163q0 -154 -232 -255q-358 -270 -395 -348v-23q0 -58 70 -279q0 -124 -93 -162q-209 39 -209 255v302q262 334 441 371q0 25 162 162q24 41 24 93q0 255 -464 255q-231 -50 -372 -208q-162 0 -162 162q159 189 580 255zM663 46
q139 0 139 -255q-32 -116 -162 -116h-70q-55 0 -92 185q23 186 185 186z" />
    <glyph glyph-name="at" unicode="@" horiz-adv-x="2066" 
d="M895 1995q853 0 1067 -580l24 -209q0 -409 -325 -580l23 -162q-183 -372 -418 -372q0 -54 -371 -116h-185q-126 0 -418 186q-188 166 -232 441q0 631 394 1113q267 279 441 279zM269 765v-162q0 -279 510 -441q274 0 627 232l23 139q-232 46 -232 232h-47
q0 -46 -185 -185h-23q-298 0 -395 232q-46 84 -46 185q0 363 487 441q84 0 278 -139q163 0 163 -116q-47 -91 -47 -255q0 -125 93 -163q242 0 325 534q-115 510 -882 510h-23q-319 -97 -580 -673q-46 -264 -46 -371zM686 1020q0 -121 140 -208h116q88 0 208 371
q-150 46 -208 46h-93q-163 -116 -163 -209z" />
    <glyph glyph-name="A" unicode="A" horiz-adv-x="1950" 
d="M710 1832q116 0 301 -417q83 -14 325 -719q232 -325 394 -696q140 -146 140 -256v-116q0 -31 -116 -116h-24q-54 24 -324 627q-198 394 -232 394h-24q0 -69 -116 -69v23l-46 -23q-608 0 -626 -232q-99 -418 -186 -418h-46q-58 0 -70 93q487 1520 487 1786q31 139 163 139
zM733 1415q-139 -379 -232 -743q24 0 69 -23q312 47 464 93q45 -23 70 -23q-124 411 -325 673z" />
    <glyph glyph-name="B" unicode="B" horiz-adv-x="1625" 
d="M779 1925v-23l47 23q533 -182 533 -278q116 -171 116 -395v-92q0 -269 -162 -395q112 -52 232 -325q-58 -510 -186 -510q-78 -79 -394 -162q-859 70 -859 139q-46 151 -46 209q35 0 70 92q-24 45 -24 70q47 174 47 186l-47 881h24l-70 325v23q42 209 162 209l47 -23
l46 23l47 -23q231 46 417 46zM292 1624l23 -232v-279q0 -52 23 -93q0 -23 -23 -23q23 -188 47 -951h139q23 0 23 -23q23 0 23 23q243 -46 371 -46q372 51 372 278v139q-180 255 -279 255l-46 -23h-47q-116 0 -348 -23q0 22 -92 139l69 139l279 -23h69q283 0 371 209v162
q0 359 -464 418q0 23 -69 23h-116q-239 0 -325 -69z" />
    <glyph glyph-name="C" unicode="C" horiz-adv-x="1764" 
d="M918 1786q225 0 604 -93q23 -122 23 -139q-35 -93 -70 -93h-116q-100 139 -348 139q-364 0 -673 -440q-69 -207 -69 -232v-70q0 -548 301 -650q138 -116 395 -116h23q273 0 441 232h23v70l46 162h24q124 0 162 -92v-24q-136 -487 -348 -487q-17 -44 -209 -93l-46 24
q-25 0 -70 -24q-479 70 -789 279q-162 357 -162 580v93q0 316 278 672q410 302 488 302h92z" />
    <glyph glyph-name="D" unicode="D" horiz-adv-x="1694" 
d="M362 1902v-23q23 0 23 23q881 -148 881 -278q348 -281 348 -673q-23 -122 -23 -139l23 -93q-23 -190 -46 -232l23 -47q-257 -556 -649 -556h-47q-14 0 -301 23q-45 -23 -70 -23q-293 76 -302 162q0 30 47 557q-65 979 -209 1113v47q72 139 302 139zM385 1670l-23 -46
q92 -775 92 -1253v-163q0 -84 348 -139q45 23 70 23v-23q418 99 418 325q54 11 116 209q0 23 -24 23l24 116v162q0 550 -627 720q-371 46 -394 46z" />
    <glyph glyph-name="E" unicode="E" horiz-adv-x="1625" 
d="M1266 1809q105 0 140 -209q-47 0 -47 -69q-23 0 -23 23l-46 -23q-96 0 -186 23q-258 -23 -464 -23h-209q-46 -7 -46 -47v-301l-23 -163q69 0 69 -46l47 23h23q23 0 23 -23l46 23h47q261 0 464 70l69 -116q0 -186 -556 -186q-279 0 -279 -116q-23 -145 -23 -325v-23
q0 -93 394 -139q45 23 70 23v-23l46 23h325l163 47q255 0 255 -163v-23q-59 -139 -186 -139h-69q0 56 -186 93l-46 -24h-348q-84 0 -209 -23q-418 31 -418 209h-23l116 1021v232l-70 232v23q110 116 256 116v-46h69q78 0 116 23l139 -23h116q111 0 464 69z" />
    <glyph glyph-name="F" unicode="F" horiz-adv-x="1486" 
d="M1313 1856q93 -35 93 -70v-162q-24 -70 -140 -70l-92 93l-836 -139q0 -78 -23 -116q23 -159 23 -256v-255q8 -46 47 -46h46q163 0 511 23q92 -105 92 -209q-23 -40 -23 -93q-339 47 -371 47h-186l-116 -23v-93q0 -52 -23 -93l23 -46l-23 -116q23 -203 23 -348v-24
q-46 -92 -139 -92q-65 0 -116 162q47 291 47 348q0 23 -24 23l24 116v209h-47v162q70 85 70 163v139q0 116 -47 116l24 116v23q0 58 -70 279v46q0 23 116 116q203 -23 232 -23q154 0 905 93z" />
    <glyph glyph-name="G" unicode="G" horiz-adv-x="1950" 
d="M1034 1740q200 0 325 -47l116 23q138 0 186 -139q0 -146 -232 -162q0 104 -279 139q-881 -217 -881 -719q0 -492 696 -743l46 24h186q394 0 394 440q0 163 -209 163l-232 -70h-69q-36 0 -93 93v23q0 116 116 163h255q52 0 93 23q45 -23 70 -23q24 0 69 23
q279 -26 279 -348v-23q-47 -40 -70 -348q-147 -231 -557 -372q-52 0 -93 -23q-315 0 -835 325q-255 403 -255 534v139q0 549 673 765q71 55 301 140z" />
    <glyph glyph-name="H" unicode="H" horiz-adv-x="1439" 
d="M1174 1972h92q47 -8 47 -47v-1253l23 -139l-23 -46q23 -418 46 -441q-14 -116 -139 -116q-36 0 -93 93v46q0 146 -23 348l23 116q0 186 -139 186t-139 23l-116 -23h-348q-70 -23 -70 -139v-441l-46 -163h-93q-84 44 -116 140q93 146 93 1020v70q-47 579 -47 603l70 47
q162 -32 162 -93v-186q0 -198 24 -626l116 -23h278l139 23q23 0 23 -23l116 23h70l23 116v93q0 52 -23 92q23 41 23 93q0 78 -23 395h23q-46 75 -46 116q45 105 93 116z" />
    <glyph glyph-name="I" unicode="I" horiz-adv-x="418" 
d="M130 1740h92q39 0 93 -140q0 -69 -23 -69l23 -279v-649q0 -163 23 -511q-84 -69 -162 -69h-23q-46 0 -93 139l70 534l-24 116v440q0 83 -46 395q35 93 70 93z" />
    <glyph glyph-name="J" unicode="J" horiz-adv-x="1138" 
d="M872 1809h116q70 -173 70 -441v-255l-24 -139q0 -23 24 -23l-24 -163v-139q0 -23 -23 -23q0 -23 23 -23q-48 -789 -324 -789l-209 -23v23l-47 -23h-46q-116 0 -302 232q-30 0 -46 162q23 70 46 70q-46 112 -46 278l93 70h69q48 -10 93 -116q0 -23 -23 -23
q0 -441 232 -441h93q232 153 232 928v139q0 23 23 23l-23 47v116q0 129 -70 440q0 37 93 93z" />
    <glyph glyph-name="K" unicode="K" horiz-adv-x="1810" 
d="M176 1693h46q140 0 140 -162l-24 -47l24 -139v-139q0 -23 -24 -23l24 -47v-185h23q306 167 696 487q0 70 46 70h209q0 -37 46 -93q0 -103 -162 -232h-23q-23 0 -23 23q-73 0 -627 -418v-23q0 -47 302 -162q528 -248 765 -511q116 -14 116 -139v-23q0 -138 -139 -186
q-98 0 -232 302q-344 273 -905 487h-23q-85 0 -116 -348q23 -23 47 -301q-27 0 -116 -186q-41 -23 -93 -23q-93 23 -93 162q93 193 93 882v603l-47 278q35 93 70 93z" />
    <glyph glyph-name="L" unicode="L" horiz-adv-x="1694" 
d="M269 1763q61 -7 116 -116q-47 -555 -70 -1346q29 -232 93 -232h464q23 0 23 -23q23 0 23 23q140 -16 140 -46l417 69q110 0 139 -232q-104 -116 -139 -116q-281 116 -765 116l-116 -23q-45 23 -70 23q-70 0 -278 -69q-152 0 -186 139l70 278q0 24 -24 24l24 162v418
q0 23 23 23q0 23 -23 23l23 116v209q0 52 -23 93q23 40 23 92v93l-23 232q89 70 139 70z" />
    <glyph glyph-name="M" unicode="M" horiz-adv-x="2228" 
d="M1684 1740h70q156 0 278 -998q116 -696 116 -858q0 -125 -93 -163h-69q-93 48 -93 116l23 279q-151 1229 -232 1229q-256 -470 -278 -905l-93 -92h-93q-67 0 -186 440l-348 488h-23q-46 0 -116 -464q-116 -332 -255 -1091l-46 -23h-24q-162 0 -162 162q0 55 93 209
q301 1063 301 1323l-23 46q70 172 70 209h69q193 0 534 -580q116 -84 116 -209h46q102 350 256 626q76 256 162 256z" />
    <glyph glyph-name="N" unicode="N" horiz-adv-x="1648" 
d="M1266 1786h116q93 -46 93 -139l-23 -47q116 -257 116 -812q-46 -1020 -186 -1020h-92q-134 53 -534 904l-348 488h-46v-256q0 -23 -24 -23l24 -46q0 -23 -24 -23q0 -24 24 -24l-24 -116v-23q0 -187 -23 -441l23 -46q0 -309 -139 -325q-139 60 -139 163q70 0 116 835
q0 227 -46 742l116 70h46q74 -51 510 -696q349 -511 441 -766h47q69 279 69 441v325q0 415 -162 696z" />
    <glyph glyph-name="O" unicode="O" horiz-adv-x="1996" 
d="M1150 1716q76 -12 395 -301q168 0 325 -325q46 -186 46 -232v-46q0 -356 -209 -766q-315 -323 -673 -348q-761 0 -951 719q0 52 -23 93q23 45 23 70l-23 46q39 230 441 835q167 177 649 255zM1174 1484q0 -116 -140 -116q0 38 -185 70q-232 -69 -464 -510
q-93 -149 -93 -488q0 -257 510 -510l47 23q46 0 46 -23q652 0 766 557q0 31 46 255q0 445 -464 696q0 23 -69 46z" />
    <glyph glyph-name="P" unicode="P" horiz-adv-x="1671" 
d="M1011 1902q580 -145 580 -487q0 -537 -209 -673q-389 -232 -904 -232v-23q23 -122 23 -139q0 -24 -23 -24q46 -294 46 -371q-98 -93 -186 -93q-92 105 -92 163q46 76 46 139q0 25 -23 70q0 23 23 23q-127 1276 -232 1276v46q0 255 673 255q0 24 278 70zM338 1392l93 -696
q93 46 163 46q121 -23 139 -23l46 23q45 -23 70 -23q533 181 533 626q0 203 -371 348q-649 -73 -649 -185q0 -78 -24 -116z" />
    <glyph glyph-name="Q" unicode="Q" horiz-adv-x="2135" 
d="M1220 1716h255q146 -69 418 -394q162 -375 162 -534q0 -339 -162 -510v-23q139 -173 139 -279q-46 -92 -139 -92q-116 139 -209 185q-180 -278 -626 -278q-730 0 -859 371q-93 158 -139 534q237 636 719 928q0 46 441 92zM292 626q0 -626 673 -626h46l47 23l46 -23
q253 0 464 232q-162 127 -162 255l69 46h70q140 -116 162 -116q125 31 139 371q0 440 -348 673v-46h-23q-77 0 -162 69h-47l-116 -23q0 23 -92 70q-417 -139 -534 -418q-99 0 -232 -487z" />
    <glyph glyph-name="R" unicode="R" horiz-adv-x="1671" 
d="M246 1809q765 -30 765 -69q23 0 23 23q534 -93 534 -302q23 -90 23 -185v-93q-113 -464 -371 -464v-23q336 -306 348 -488q-46 -116 -70 -116q-143 0 -208 209q-15 0 -372 325l-162 -46l-46 23q-24 0 -24 -23l-116 23h-69l-70 -47q23 -45 23 -69q0 -78 24 -395
q-30 -116 -70 -116h-93q-45 0 -93 140q24 208 47 208l-47 372q24 45 24 69q-93 664 -186 766q0 201 186 278zM315 1484q106 -672 163 -672q76 -47 139 -47q673 70 673 302q60 0 92 185q0 325 -858 325h-139q-35 0 -70 -93z" />
    <glyph glyph-name="S" unicode="S" horiz-adv-x="1926" 
d="M918 1809q743 -70 743 -209q46 0 46 -116q-107 -69 -139 -69q-73 0 -278 162q-187 47 -232 47h-70q-505 0 -719 -418q0 -302 626 -302q244 163 325 163q364 0 603 -348q0 -52 23 -93q0 -723 -719 -905l-116 -23q-325 46 -510 116q-45 -23 -70 -23q-255 55 -255 255
l-23 278q90 70 139 70q70 -85 116 -348q412 -139 580 -139q304 0 534 325q52 88 92 278l-23 93h23q0 98 -324 232q-430 -139 -488 -139h-162q-510 117 -510 255q-47 0 -70 232q169 464 325 464q261 162 533 162z" />
    <glyph glyph-name="T" unicode="T" horiz-adv-x="1834" 
d="M176 1740l93 -24q23 0 23 24q334 -70 487 -70q40 0 139 46q93 -46 325 -69l325 69q186 0 186 -162q0 -93 -140 -139q-182 69 -232 69h-116q-162 -7 -162 -46q0 -115 -23 -278l23 -116q-94 -1230 -186 -1230h-92q-70 23 -70 139v70q93 161 139 835v209q0 122 -23 394
q-45 0 -162 47q-45 -24 -70 -24q-17 0 -139 24l-47 -24l-46 24l-116 -24l-46 24q-41 -24 -93 -24h-23q-34 0 -70 70v93q10 48 116 93z" />
    <glyph glyph-name="U" unicode="U" horiz-adv-x="1741" 
d="M1498 1925q116 0 140 -93q-24 -121 -24 -139q47 -161 47 -278q-123 -1310 -325 -1508q-219 -209 -487 -209q-538 0 -743 418q-23 466 -46 556q70 1044 116 1044l139 24q70 -24 70 -140q-55 0 -116 -812l23 -162h-23l23 -46v-93q29 -487 232 -487q232 -70 232 -93
q417 0 557 394q69 320 116 1067l-23 116l23 163q-23 125 -23 209z" />
    <glyph glyph-name="V" unicode="V" horiz-adv-x="1718" 
d="M130 1740h92q85 0 116 -372l302 -1229l46 -23h24q224 475 417 812q163 348 232 696q12 0 93 23q150 0 186 -139q0 -171 -186 -302q-105 -262 -464 -974q-232 -574 -232 -604h-162q-140 0 -209 789q-255 909 -325 1253q0 33 70 70z" />
    <glyph glyph-name="W" unicode="W" horiz-adv-x="2112" 
d="M1939 1786h23q70 0 70 -93q-209 -1071 -209 -1160q-264 -767 -371 -812l-162 -46h-47q-314 514 -348 789q-185 -272 -185 -696q-37 0 -93 -47q-204 0 -232 325q-47 139 -186 1114l-139 440q0 116 139 116q152 0 232 -881l116 -603h23q209 465 232 672q77 47 140 47h92
q0 -404 232 -882l47 -23h69q186 210 325 882q47 470 70 580q-23 34 -23 139q64 139 185 139z" />
    <glyph glyph-name="X" unicode="X" horiz-adv-x="1694" 
d="M1406 1716q139 0 139 -162q-77 -255 -232 -255q-325 -397 -325 -464q278 -464 371 -464q41 0 163 -232q60 0 92 -116q-14 -116 -139 -116q-348 174 -348 371q-200 190 -278 394q-44 0 -371 -440q-255 -348 -279 -348h-23l-116 23v46q0 119 510 696q140 157 140 209
q-186 293 -464 580v23q0 70 139 139q87 -28 348 -394q86 -172 139 -186q329 445 487 696h47z" />
    <glyph glyph-name="Y" unicode="Y" horiz-adv-x="1810" 
d="M1522 1832q179 0 208 -139q-54 -255 -255 -255q0 -59 -278 -510q-209 -441 -209 -650l23 -46q-46 -118 -46 -163q23 -159 23 -255q0 -116 -139 -116q-116 0 -139 464q-30 0 -47 139l23 209q-82 475 -324 742q-279 115 -279 163q-23 40 -23 93q23 92 139 92h116
q0 -41 302 -301q185 -325 255 -534l46 -23q426 812 511 1044q93 0 93 46z" />
    <glyph glyph-name="Z" unicode="Z" horiz-adv-x="2089" 
d="M199 1693l116 -23q272 0 557 -23q202 23 348 23l93 -23q23 0 23 23l162 -23h163q116 -52 116 -232v-23q-432 -316 -1323 -1184v-23q47 0 47 -23q383 23 580 23h348q52 0 93 23q23 0 23 -23q174 23 255 93h116q30 0 93 -139v-93q-48 -93 -116 -93q-247 47 -325 47h-441
q-461 0 -858 -93h-93q-93 23 -93 255q65 120 325 255q1044 938 1044 1021q-232 18 -232 46l-232 -23h-696q-52 0 -93 -23q-139 47 -139 93q0 116 139 162z" />
    <glyph glyph-name="bracketleft" unicode="[" horiz-adv-x="1462" 
d="M1290 2111q36 0 92 -93v-93q0 -24 -116 -93q-127 24 -185 24q-487 0 -487 -209q-209 -710 -209 -1369h23q23 0 23 -23l302 46v-23l46 23q23 0 23 -23l47 23h23q23 0 23 -23q23 0 23 23q209 -23 209 -69v-140l-46 -69q-273 23 -395 23h-23q-235 0 -464 -70h-46
q-93 38 -93 163v46q46 93 70 93l-24 46v24q61 0 186 904q14 0 116 418l-23 46q59 302 93 302q76 46 139 46h23q63 0 139 -46q25 0 70 23l139 -23q183 93 302 93z" />
    <glyph glyph-name="backslash" unicode="\" horiz-adv-x="1439" 
d="M130 1902h46q144 0 186 -232q103 -126 556 -928q441 -565 441 -696q-90 -116 -185 -116q-93 93 -163 348q-194 209 -765 1253q-186 155 -186 278q35 93 70 93z" />
    <glyph glyph-name="bracketright" unicode="]" horiz-adv-x="1254" 
d="M1034 2088q140 -47 140 -163v-69q-93 -223 -232 -928q-93 -451 -163 -1021l-162 -23q-60 92 -279 92l-139 -69q-96 32 -139 116v23q0 84 70 139l232 -23h139q156 0 348 1299q46 105 46 302v46q-104 0 -139 23l-464 -92h-23q-47 0 -47 46v116q0 70 232 116h348z" />
    <glyph glyph-name="asciicircum" unicode="^" horiz-adv-x="9211" 
d="M1429 2064q93 -23 93 -139v-23q-186 -589 -186 -626q-111 -339 -232 -952q-174 -208 -302 -208q-116 52 -116 603l-46 23q-241 -614 -348 -650h-70q-92 48 -92 116q0 222 -70 766h23q0 23 -23 23q0 25 23 70q-23 197 -23 325q0 58 23 185q-23 41 -23 93q32 116 162 116
q24 -70 47 -70l-23 -162v-348q0 -696 92 -696q154 270 325 742h23q163 0 163 -139l-23 -93l46 -580h46q93 233 256 928q46 62 116 372q-24 158 -24 255q103 69 163 69zM3238 1995h116q39 0 70 -163l-23 -116q46 -1693 116 -1693v-139q0 -37 -93 -93h-46q-93 37 -93 162
q0 93 23 93q-23 159 -23 255q0 340 -47 1067l-46 24l-325 -743q-69 -205 -162 -232h-70q-116 47 -116 186q0 23 23 23q-46 219 -69 742q-36 -7 -395 -974q0 -75 -208 -348h-70q-46 0 -70 139q441 678 650 1694l70 46h46q139 0 139 -626q28 -304 70 -534q133 154 487 1067
q0 163 46 163zM5698 1948h46q116 0 116 -904l-23 -209q0 -23 23 -23l-23 -116v-116q0 -47 93 -47v-46q0 -216 -557 -487h-116q-296 0 -371 324v70q0 414 510 673q125 23 209 23q7 -46 46 -46l23 46q0 636 -92 719v116zM8249 1368q325 -15 325 -139q-17 -162 -162 -162
q0 23 -116 116q-263 0 -371 -186q69 -58 69 -93h209q23 0 23 -23l209 47q23 0 23 -24l163 24h46q278 0 464 -696v-93q0 -127 -139 -186h-116q-90 0 -719 163q-279 0 -279 185v23q0 140 116 140q45 -24 70 -24v-139q87 0 719 -185h70q23 0 92 92q-119 534 -394 534h-23
q-60 0 -232 -46l-116 23q-25 0 -70 -23q-394 51 -394 278q0 253 533 394zM6672 1252q328 0 510 -371l23 -162l-116 -93l-232 23q-262 -23 -487 -23l-23 -46q0 -256 278 -256h93q160 0 743 163l69 -116q-32 -163 -93 -163q-165 24 -185 24q-445 -93 -534 -93h-116
q-305 0 -394 209q-46 150 -46 208v186q0 122 371 441q32 0 139 69zM6440 858v-46h46l418 46v70q-60 116 -186 116h-69q-208 -162 -209 -186zM5628 974q0 -99 -255 -116q-325 -239 -325 -487q93 -209 232 -209q159 0 371 232v186q0 127 23 324q-23 45 -23 70h-23zM4538 951
q324 0 324 -209v-70q0 -255 -510 -580h-255q-214 0 -279 395q70 325 140 325l116 116q119 0 464 23zM4027 533v-162q0 -23 116 -116q348 0 534 441v23q-108 93 -232 93q-81 0 -279 -116q-64 0 -139 -163z" />
    <glyph glyph-name="underscore" unicode="_" horiz-adv-x="2692" 
d="M1707 -395q92 -23 163 -23q205 23 255 23q0 -29 417 -116q24 0 70 -116q-13 -67 -116 -185l-719 185q-45 -23 -70 -23v23l-46 -23q-97 0 -255 23q-996 -69 -1253 -162q-93 81 -93 162q0 139 580 139q529 24 1067 93z" />
    <glyph glyph-name="grave" unicode="`" horiz-adv-x="601" 
d="M521 1079h-69l-330 202q-31 20 -46.5 40t-15.5 42q0 31 20.5 51t53.5 20q20 0 40.5 -12t55.5 -47z" />
    <glyph glyph-name="a" unicode="a" horiz-adv-x="1462" 
d="M408 1183q719 0 719 -255q68 0 93 -348v-93l-70 -348q2 -55 209 -232q23 -45 23 -70q0 -185 -185 -185l-116 139q-183 -93 -302 -93h-23q-23 0 -23 23q-23 0 -23 -23q-650 87 -650 534q87 371 371 371q0 41 232 69l47 -23q40 23 92 23h24q23 0 23 -23l46 23l70 -46h23
q0 307 -394 325q-151 -47 -209 -47q-36 0 -93 93v93q10 48 116 93zM292 232v-47q78 -209 302 -209q126 -23 255 -23q45 23 69 23v232q0 31 47 256l-47 -24q-14 0 -301 24q-223 -57 -325 -232z" />
    <glyph glyph-name="b" unicode="b" horiz-adv-x="1486" 
d="M292 1647h93q18 0 69 -70q-23 -59 -23 -696q64 0 279 70q696 -68 696 -511v-69q0 -505 -348 -673q-211 -70 -418 -93q-29 3 -325 209q-1 -32 -116 -93q-139 53 -139 186q64 136 139 1160h23l-23 46q18 302 47 302l-24 46v47q15 139 70 139zM315 69q42 0 255 -185
q85 -47 186 -47h23q369 0 418 464v93q0 260 -441 325q-418 -62 -418 -325q-23 -290 -23 -325z" />
    <glyph glyph-name="c" unicode="c" horiz-adv-x="1277" 
d="M733 1136q348 -31 348 -139v-69q0 -33 -139 -140h-24q-149 93 -232 93q-216 -77 -255 -116q-162 -162 -162 -417q0 -232 441 -256h46q291 140 325 140q116 -33 116 -163q0 -162 -163 -162q-24 0 -69 23q-175 -46 -325 -46h-46q-534 63 -534 394v70q0 493 325 603
q0 52 348 185z" />
    <glyph glyph-name="d" unicode="d" horiz-adv-x="1578" 
d="M1336 1902h93l23 -116l-209 -974q0 -24 23 -24q-46 -224 -46 -255l23 -46q-23 -41 -23 -93q7 -46 46 -46q128 23 186 23l46 -70q0 -300 -765 -464h-139q-488 100 -488 325q-46 165 -46 255q0 489 371 627q248 46 441 46v-23l46 23q93 -46 163 -46q170 812 209 812
q7 46 46 46zM269 533l23 -46q0 -25 -23 -70q52 -371 348 -371h23q117 0 371 70v255q0 127 23 325q0 208 -348 208q-417 -71 -417 -371z" />
    <glyph glyph-name="e" unicode="e" horiz-adv-x="1694" 
d="M779 1554h139q650 -125 650 -626q46 0 46 -163v-116q0 -31 -116 -116h-92q-279 116 -812 116l-93 -23l-116 70h-70q-46 0 -46 -70q40 -217 417 -534q151 -46 209 -46h139q98 0 256 139h116q69 0 92 -209q-104 -139 -603 -139h-93q-273 116 -301 116q-441 425 -441 766v69
q0 103 325 534q267 232 394 232zM338 928h47l93 69h116q97 -139 162 -139q57 0 325 -46l46 23l47 -23q174 41 208 116q-96 417 -394 417q0 23 -70 23q-354 0 -580 -440z" />
    <glyph glyph-name="f" unicode="f" horiz-adv-x="1439" 
d="M988 2157q270 0 371 -255q-23 -139 -69 -139h-47l-139 139h-209q-209 0 -209 -325v-626q25 0 70 -23q45 23 70 23v-23l46 23q128 0 209 -139v-24q0 -120 -70 -139q-220 70 -278 70h-70v-186q0 -151 23 -464q-92 -93 -139 -93q-106 45 -116 93q47 280 47 441v186
q-70 0 -70 23l-46 -23l-47 23q-45 -23 -69 -23v23l-47 -23q-139 0 -139 139v46q0 34 70 70q116 0 348 -23l23 46v302q8 464 46 464l-23 46q0 23 23 23l-23 47v116q14 66 464 185z" />
    <glyph glyph-name="g" unicode="g" horiz-adv-x="1625" 
d="M826 1276q464 -93 464 -140q142 0 255 -371v-23l-23 -46l23 -47q-116 -1179 -255 -1369q-296 -371 -534 -371q-441 64 -441 232q-30 139 -93 139v24q0 137 140 232h69q0 -38 47 -70q-24 -122 -24 -139q0 -57 232 -209l47 23q45 -23 69 -23q464 264 464 1044v23h-23
q-210 -139 -301 -139h-140q-497 0 -696 348l-46 116q0 23 23 23l-23 116q221 627 766 627zM292 533q0 -229 580 -255h46q372 144 372 394q-24 92 -24 163l24 46q0 116 -209 116q0 -46 -116 -46q0 52 -232 93q-287 0 -418 -372z" />
    <glyph glyph-name="h" unicode="h" horiz-adv-x="1532" 
d="M269 2320q93 -132 93 -186h-24q24 -186 47 -186l-23 -116v-255q0 -23 -24 -23l24 -46l-24 -116q0 -24 24 -24l-24 -116v-371h24q86 74 301 441q98 93 186 93q272 0 487 -209q116 -441 116 -464l-23 -139v-163q0 -23 -23 -23l23 -46v-23q0 -53 -23 -93q23 -45 23 -70
l-93 -69h-46q-140 0 -140 162l70 348q-48 487 -186 487l-139 23q-162 0 -394 -464q-116 -227 -139 -464l-209 -92q-93 205 -93 232q23 0 23 23q-23 0 -23 23q54 0 93 116l-23 46v24q0 23 23 23l-23 46q0 23 23 23q0 24 -23 24l23 92l-23 116h23q-23 45 -23 70l23 93
q-23 45 -23 69h23q0 24 -23 24q23 272 23 394v371l-70 232q0 145 186 163z" />
    <glyph glyph-name="i" unicode="i" horiz-adv-x="558" 
d="M338 1972q66 0 140 -186q0 -162 -163 -162h-93q0 36 -46 92v140q70 116 162 116zM338 1229h24q0 -36 46 -93q-72 -1136 -162 -1136h-93q-36 0 -93 92v140q70 0 139 696q-23 38 -23 116q0 185 162 185z" />
    <glyph glyph-name="j" unicode="j" horiz-adv-x="1300" 
d="M872 1879q181 0 232 -139v-93q-38 -93 -162 -93h-70q-51 0 -93 186q47 139 93 139zM1104 1206q93 -23 93 -139q0 -187 23 -673q0 -389 -162 -905q0 -116 -163 -232h-139l-162 -23q0 33 -279 116q-255 127 -255 162v93q0 34 70 70h139l93 -139q113 -70 301 -70
q325 51 325 534q46 314 46 394q-23 439 -69 696q23 116 139 116z" />
    <glyph glyph-name="k" unicode="k" horiz-adv-x="1486" 
d="M431 2273q126 0 163 -116l-116 -487q0 -23 23 -23q-70 -318 -93 -743h23q820 423 835 464h93l47 -23q0 -194 -163 -325l-139 24q-419 -179 -626 -372q132 -46 533 -371q279 -316 279 -394v-93h-163q-307 418 -649 626h-93q-57 0 -93 -556q-81 -93 -162 -93
q-70 23 -70 139q116 477 255 1995v23q0 24 23 24l-46 116q18 185 139 185z" />
    <glyph glyph-name="l" unicode="l" horiz-adv-x="511" 
d="M292 1856h93l46 -24l-46 -510l23 -93q-75 -977 -139 -1183q23 -45 23 -70q-81 -92 -162 -92h-24q-46 0 -46 46q186 885 186 1833v46q7 47 46 47z" />
    <glyph glyph-name="m" unicode="m" horiz-adv-x="2089" 
d="M640 1136h116q239 -134 325 -417q23 -139 69 -139q8 114 418 487q23 0 23 46h93q215 0 325 -417q0 -24 -23 -24l23 -278q0 -136 -47 -464l24 -46q-31 -302 -116 -302h-116q-70 23 -70 139q70 162 116 627l-70 464h-69q-166 0 -418 -464q-55 -395 -162 -395h-70
q-63 0 -116 650q-88 226 -255 301h-23q-302 -484 -302 -1090l-69 -46h-116q0 36 -47 92q13 279 47 279l-24 46v534q0 27 -46 255v23q23 70 139 70q70 -23 70 -139v-186q7 -46 46 -46q138 440 325 440z" />
    <glyph glyph-name="n" unicode="n" horiz-adv-x="1462" 
d="M756 1322h23q194 0 487 -302q116 -318 116 -556q-9 -696 -162 -696h-93l-23 162v46q0 22 46 395q0 555 -278 673h-70q-464 -556 -464 -928l24 -116q-93 -48 -93 -116h-47q-162 0 -162 162q70 208 139 1090q76 47 116 47q47 -76 47 -139v-232q188 161 348 487z" />
    <glyph glyph-name="o" unicode="o" horiz-adv-x="1718" 
d="M756 1252l46 -23q45 23 70 23l23 -46l163 23h139q441 -147 441 -533q0 -593 -418 -812q-158 -140 -510 -140q-291 0 -627 557q0 18 -23 139q70 343 394 696q84 0 302 116zM826 951l-116 23q-278 0 -418 -534v-23q0 -267 441 -441q696 0 696 743q-63 348 -395 348z" />
    <glyph glyph-name="p" unicode="p" horiz-adv-x="1857" 
d="M1011 1368q766 -69 766 -533h-23q0 -23 23 -23q0 -574 -464 -766h-302q-231 0 -510 139q-25 0 -70 23q-93 -797 -139 -951l-93 -69h-23q-116 46 -116 162v70q95 0 232 1113q0 23 -23 23q46 256 46 441q0 18 -23 139q0 74 162 116q0 58 93 70q241 0 464 46zM454 394
q70 0 418 -162q23 0 23 23l116 -23h139q333 0 418 533q0 284 -418 395h-162q-487 0 -487 -256q0 -190 -47 -510z" />
    <glyph glyph-name="q" unicode="q" horiz-adv-x="1486" 
d="M826 1299l278 -47l46 24q232 0 232 -395q24 -165 24 -185q-112 -129 -140 -1091q-23 0 -46 -209q0 -23 23 -23l-69 -255h-116q-37 0 -93 93q0 80 162 789l-23 46v70q0 23 23 23q-23 38 -23 116q-231 -143 -394 -163h-116q-353 0 -534 627q85 487 487 487v46h163
q116 0 116 47zM269 649q209 -348 371 -348h23q449 0 487 534q0 52 -23 93q23 40 23 92v47h-69q-52 0 -93 -23q-117 46 -162 46q-557 -68 -557 -441z" />
    <glyph glyph-name="r" unicode="r" horiz-adv-x="1671" 
d="M640 1438h487q366 0 464 -139v-23q0 -125 -93 -163h-69q-55 0 -209 93q-90 23 -186 23h-208q-227 0 -302 -325q-93 -241 -162 -672q23 -39 23 -116q-58 -163 -186 -163q-139 0 -139 163v92q107 0 186 905q0 23 -24 23l24 116v140l116 23h23q69 0 69 -116q26 0 186 139z
" />
    <glyph glyph-name="s" unicode="s" horiz-adv-x="1323" 
d="M756 1461q194 0 348 -139q-23 -92 -23 -162h-139q-123 116 -302 116q-255 -115 -255 -256q0 -52 162 -92q23 0 23 23q650 -46 650 -325q23 0 23 -70v-185q0 -419 -510 -487h-23q-325 0 -650 464q0 162 162 162h47q64 0 93 -232l232 -186q23 0 23 24l116 -24
q235 0 301 325l-23 47l23 46q0 207 -672 232q-209 124 -209 255q0 252 371 441z" />
    <glyph glyph-name="t" unicode="t" horiz-adv-x="1207" 
d="M733 2204h69q34 0 70 -70v-93q-186 -576 -186 -765h70q371 0 371 -140v-69q-23 -93 -139 -93q-113 70 -302 70h-69q-47 -296 -47 -488q0 -252 209 -417q171 51 209 93q96 -32 139 -116v-47q0 -120 -69 -139h-395q-175 68 -278 394l-23 93h23l-23 47v116q0 145 69 464h-93
q-52 0 -92 -24q-186 47 -186 93v47q0 69 418 139l185 858z" />
    <glyph glyph-name="u" unicode="u" horiz-adv-x="1439" 
d="M246 1438h46q33 0 70 -70q-70 -482 -70 -672v-209q41 -348 325 -348q168 0 394 325l139 464l-23 46v162q0 53 -23 93q46 163 139 163q116 -70 116 -302v-23q0 -23 -23 -23q0 -24 23 -24q0 -656 -533 -1067q-159 -23 -256 -23q-510 0 -510 650l70 626q-24 41 -24 93
q0 139 140 139z" />
    <glyph glyph-name="v" unicode="v" horiz-adv-x="1602" 
d="M1475 1345l47 -69v-24q0 -169 -163 -278l-441 -766q-156 -464 -232 -464l-46 -23q-41 0 -186 163l24 92q0 177 -395 1207q-23 0 -23 93l70 46h92q57 -46 93 -46v-116q155 -565 255 -720q70 -278 116 -278q488 835 580 1114v46h24q23 0 23 -23q117 46 162 46z" />
    <glyph glyph-name="w" unicode="w" horiz-adv-x="1996" 
d="M1800 1322q116 -77 116 -93q-280 -1299 -719 -1299q-232 394 -232 487h-47q-52 -224 -324 -557q-279 0 -279 372l-232 788q-23 0 -23 24l70 116q185 0 185 -140q186 -835 232 -835h47q255 456 255 673q36 0 93 46q23 0 23 -23l46 23q68 0 163 -464q93 -162 116 -162
q185 102 348 603q0 70 23 163q-23 121 -23 232z" />
    <glyph glyph-name="x" unicode="x" horiz-adv-x="1509" 
d="M1313 1461q106 -45 116 -93q0 -207 -255 -301q-232 -210 -232 -255q417 -334 417 -557q70 -23 70 -139v-47q0 -46 -47 -46h-92q-319 530 -464 603q-45 23 -70 23q-118 -55 -464 -580q0 -46 -93 -46q-139 54 -139 162q0 57 186 186q0 41 301 348l70 93v46
q-246 255 -395 255q0 93 -46 163q0 64 162 116q65 0 372 -325l92 -70q31 0 441 464h70z" />
    <glyph glyph-name="y" unicode="y" horiz-adv-x="1532" 
d="M1266 1461h116q70 0 70 -93q-278 -523 -487 -1113q-139 -301 -186 -511q-78 -49 -139 -464l-93 -92h-69q-37 0 -93 92v70q0 108 209 464q0 89 92 325q-69 0 -185 325q-225 411 -418 580l-23 139v69l116 24h46q35 0 348 -557q209 -287 209 -325q57 3 232 534
q255 472 255 533z" />
    <glyph glyph-name="z" unicode="z" horiz-adv-x="1810" 
d="M942 1484q18 0 371 -92q75 46 116 46q139 -48 139 -186v-23q0 -57 -278 -232q-795 -689 -859 -812l47 -23q77 0 116 23l139 -23h116q52 0 93 23q40 -23 92 -23q428 0 511 93h23q116 0 162 -116v-23q0 -121 -116 -163l-208 23q-126 0 -441 -23l-116 23l-47 -23
q-23 0 -23 23l-93 -23l-162 23q-20 0 -186 -23q-278 23 -278 139v70q24 96 232 162q0 70 162 163q766 673 766 696q0 69 -418 69h-69q-339 -46 -371 -46l-47 70v116q7 46 47 46q580 23 580 46z" />
    <glyph glyph-name="braceleft" unicode="{" horiz-adv-x="1045" 
d="M756 1902q70 -85 70 -162q0 -32 -116 -116q-53 0 -93 23q-152 -61 -255 -186v-116q208 -242 208 -487q-23 -45 -23 -70q116 -45 116 -255q0 -42 -255 -348l-23 -139v-46q246 -140 325 -140q45 0 162 47q41 -23 93 -23v-93q0 -186 -279 -186q-229 0 -556 348l-24 116
q98 303 256 395l23 116q-23 0 -23 23l-163 -23h-46q-48 10 -93 116q0 146 232 232l23 46q0 110 -139 209q0 29 -70 185q0 340 650 534z" />
    <glyph glyph-name="bar" unicode="|" horiz-adv-x="442" 
d="M199 2204h23q140 0 140 -93q-47 -780 -47 -998v-185l-23 -140l23 -46q-23 -45 -23 -70q0 -46 23 -46l-23 -162v-256q46 -684 46 -742v-23q-36 0 -92 -47q-99 0 -186 163q23 858 70 1276q0 23 -24 23l24 116q0 230 23 951q-47 174 -47 186z" />
    <glyph glyph-name="braceright" unicode="}" horiz-adv-x="1022" 
d="M130 1972h185q603 -168 603 -279q0 -209 -185 -533l-23 -93q232 -82 232 -139q0 -232 -279 -232l-46 -70v-46q177 0 278 -325q0 -398 -232 -534q-124 -93 -325 -185q-278 52 -278 255l70 46h46l116 -69q371 116 371 371v93q0 179 -278 232l-47 69v70q0 109 186 255
q-70 99 -70 186l232 556q-114 93 -371 140l-116 -24q-93 24 -93 140z" />
    <glyph glyph-name="asciitilde" unicode="~" horiz-adv-x="1648" 
d="M1475 1229q93 -14 93 -185v-24q0 -65 -93 -185q-119 -302 -325 -302q-305 93 -348 209q-161 186 -278 186q-181 -153 -278 -302h-116q-47 0 -70 139q282 418 464 418q238 0 510 -325q118 -46 163 -46q69 108 116 348q116 69 162 69z" />
    <glyph glyph-name="exclamdown" unicode="&#xa1;" horiz-adv-x="720" 
d="M408 2020h116q116 -53 116 -233q-31 -95 -116 -139q-162 97 -162 139v186q46 0 46 47zM385 1323l70 -70q-140 -955 -163 -1021l23 -47q-23 -162 -69 -162h-140q0 36 -46 93v23q116 454 186 1138q95 46 139 46z" />
    <glyph glyph-name="cent" unicode="&#xa2;" horiz-adv-x="1602" 
d="M895 1879h93q46 -125 46 -139q-46 -294 -46 -372q84 47 209 47q106 -45 116 -93v-93q0 -61 -163 -93q0 47 -46 47h-162q-140 -745 -140 -789q371 0 511 186q40 23 93 23h46q70 0 70 -93q0 -225 -511 -302q-278 0 -278 -162v-186l-116 -46q-139 59 -139 162l69 209
q-487 239 -487 511q116 314 487 580l232 69q23 313 23 464zM292 742v-93q120 -209 302 -209q62 166 139 696q-180 -34 -395 -324z" />
    <glyph glyph-name="sterling" unicode="&#xa3;" horiz-adv-x="1787" 
d="M1266 1832q47 -76 47 -139q0 -123 -255 -162q-320 -179 -418 -441v-93q0 -162 209 -162q45 23 69 23q180 0 209 -139q-18 -163 -162 -163q-89 70 -209 70h-46q0 -84 -93 -487q23 -45 23 -70h162q564 -46 627 -46h46q52 0 93 23q96 -32 139 -116q0 -126 -116 -186h-139
q0 100 -696 116q-175 0 -557 -116h-93l-46 163q85 124 302 185q129 208 139 511v23l-116 23h-255l-47 163q0 30 139 92q93 -18 93 -46l47 23q40 -23 92 -23q0 52 -23 93q0 499 627 765q58 116 208 116z" />
    <glyph glyph-name="currency" unicode="&#xa4;" horiz-adv-x="1926" 
d="M315 1531h23q40 0 418 -209q232 -23 348 -23q99 0 348 209l139 23q76 -70 116 -70v-46q0 -170 -209 -209q-92 -209 -116 -464q0 -340 441 -487l23 -47v-139l-139 -46l-348 93q0 148 -185 232h-116q-461 0 -511 -302q-441 0 -441 139v47q8 46 47 46h162l116 162
q47 70 70 279q0 319 -418 580l-23 116q39 39 255 116zM617 1136l-23 -46q88 -35 116 -464l-24 -93q24 0 24 -23q273 88 487 116q0 25 -23 70q30 300 69 371q-23 0 -23 23l-116 -23h-23q-261 0 -464 69z" />
    <glyph glyph-name="section" unicode="&#xa7;" horiz-adv-x="1509" 
d="M1174 2134q101 -23 139 -116v-93l-70 -69l-510 46q-116 -30 -116 -70v-116q44 -84 557 -232q255 -182 255 -371q0 -365 -418 -580v-69q121 0 163 -209v-116q-127 -371 -534 -371h-93q-198 0 -301 139v93q7 46 46 46h46q70 0 232 -93l47 23l46 -23q142 0 255 163v162
q-139 93 -324 139q0 101 -348 163q-140 109 -186 232q0 427 394 649q-69 310 -69 418v23q0 142 185 209h232q135 0 372 23zM849 1415l-70 -93l-116 23h-69q-302 -220 -302 -417v-24q0 -162 186 -162q0 -23 23 -23h209l139 -23q348 108 348 348v69q0 189 -348 302z" />
    <glyph glyph-name="dieresis" unicode="&#xa8;" horiz-adv-x="721" 
d="M74 1289l71 72q13 12 25 12q11 0 27 -14l69 -73q10 -14 10 -25q0 -13 -12 -27l-69 -75q-17 -17 -25 -17q-14 0 -25 12l-76 86q-9 12 -9 23q0 13 14 26zM439 1289l71 72q13 12 25 12q11 0 27 -13l69 -74q10 -14 10 -25q0 -13 -12 -26l-69 -76q-17 -17 -25 -17
q-14 0 -25 12l-76 87q-9 11 -9 22q0 13 14 26z" />
    <glyph glyph-name="copyright" unicode="&#xa9;" horiz-adv-x="2321" 
d="M1359 2157q552 0 696 -348q158 0 186 -603v-23q0 -203 -70 -418q0 -23 23 -23q-139 -580 -324 -580q-226 -181 -604 -278l-92 23q-92 -23 -163 -23v23l-46 -23q-316 34 -673 417q-209 292 -209 418l-23 162q0 388 302 835q552 441 974 441h23zM246 858q0 -340 580 -719
q161 -47 278 -47q619 0 858 488q70 368 70 556v116q0 538 -441 720h-46v-93h-23q0 93 -256 93q-376 0 -812 -441q-94 0 -208 -673zM1174 1577h324q32 0 116 -116q0 -162 -116 -162q-145 93 -301 93q-241 -87 -464 -488v-23q0 -185 255 -185h186q301 61 301 162h23
q24 0 24 -23l46 23h93q46 -7 46 -46v-24q0 -221 -626 -301h-70q-487 66 -487 348q287 673 557 673q0 23 93 69z" />
    <glyph glyph-name="guillemotleft" unicode="&#xab;" horiz-adv-x="1928" 
d="M965 1787q93 -37 93 -162v-47q-60 -104 -371 -278q-324 -311 -325 -325q263 -317 534 -418q139 -131 139 -186q-54 -139 -93 -139h-69q-48 0 -186 209q-104 28 -302 209q-325 188 -325 325q0 131 255 209q283 283 650 603zM1639 1741h69q37 0 93 -93v-23
q0 -116 -255 -256l-302 -278q581 -493 581 -534l23 -140v-69q0 -34 -70 -70h-46q-196 318 -441 465l-233 185q-18 49 -46 256q0 45 279 209q16 0 348 348z" />
    <glyph glyph-name="logicalnot" unicode="&#xac;" horiz-adv-x="1904" 
d="M1616 1532h46q163 0 163 -163v-69q-93 -86 -93 -395q-24 0 -24 -23l24 -47q-24 -197 -24 -325l24 -139q-33 -232 -186 -232q-93 25 -93 232q70 119 70 232v163q0 151 23 464h-23q-654 -70 -1417 -70l-46 93q45 106 93 116h232q70 0 70 24l116 -24h325q555 0 720 163z" />
    <glyph glyph-name="registered" unicode="&#xae;" horiz-adv-x="2553" 
d="M1150 2250h140q123 -123 672 -186q355 -228 464 -649q0 -93 47 -163q-161 -904 -348 -904q-311 -348 -789 -348q-617 92 -858 301q-219 73 -395 464q0 105 -23 139q165 812 278 812q0 63 209 302q402 232 603 232zM246 904q103 -337 394 -487q410 -185 742 -232
q812 170 812 766q24 0 70 278q-144 673 -464 673q0 53 -325 70q-23 -45 -23 -70h-23l-116 70q-222 -24 -255 -47q-48 0 -93 116q-249 -71 -441 -348q-278 -462 -278 -789zM1081 1809q332 0 626 -348v-185q-96 -182 -348 -256q-69 0 -69 -46v-23q169 -93 603 -209l23 -46
q0 -186 -116 -186l-719 325q0 46 -116 46l-23 -46v-209q0 -120 -70 -139q-116 0 -139 93q69 590 69 812v46q0 23 24 23q-24 92 -70 163v46q0 139 209 139h116zM988 1438v-278h162q348 50 348 232q-157 134 -394 232q-116 0 -116 -186z" />
    <glyph glyph-name="degree" unicode="&#xb0;" horiz-adv-x="1184" 
d="M501 1832q415 0 580 -278h23v-93q-111 -533 -650 -533h-46q-348 99 -348 301v47q0 301 441 510v46zM547 1531h-69l-47 23q-122 -129 -162 -232q32 -140 116 -162h255q209 154 209 278q0 186 -186 186z" />
    <glyph glyph-name="plusminus" unicode="&#xb1;" horiz-adv-x="1741" 
d="M826 1693q61 -7 116 -116l-24 -116v-278q8 -47 47 -47h255q23 0 23 -23q49 23 209 47q46 -77 46 -140v-92q0 -52 -185 -93q0 55 -325 116q-93 -23 -93 -139v-93q0 -209 163 -209h255l69 46h186q36 0 93 -92q-28 -186 -93 -186q-171 0 -186 70l-278 -24h-139
q-224 0 -534 70q-152 -23 -301 -23q-34 0 -70 69v47q94 139 302 139q122 -46 301 -70q0 69 47 232v163h-116q-96 0 -186 -23q-325 0 -325 139q23 93 139 93h140q23 0 23 -24l46 24q45 -24 70 -24l46 24l47 -24q139 0 139 140l-23 324q8 63 116 93z" />
    <glyph glyph-name="uni00B2" unicode="&#xb2;" horiz-adv-x="1347" 
d="M640 1694q82 0 140 -185q0 -44 -256 -302q0 -32 -116 -163v-23q557 58 557 139h186q115 -61 116 -92v-47q0 -125 -93 -162h-46q-110 0 -232 23q-477 -70 -627 -186h-70q-32 0 -139 139v70q0 92 209 279q0 12 162 232q0 46 -46 46q-162 -23 -162 -69q-163 23 -163 69v163
q184 46 580 69z" />
    <glyph glyph-name="acute" unicode="&#xb4;" horiz-adv-x="601" 
d="M351 1375q35 35 55.5 47t40.5 12q33 0 53.5 -20t20.5 -51q0 -22 -15.5 -42t-46.5 -40l-330 -203h-69z" />
    <glyph glyph-name="mu" unicode="&#xb5;" horiz-adv-x="1440" 
d="M176 1114h93q54 0 93 -395q23 0 23 -46l-23 -209q0 -240 139 -325h116q296 0 511 511q0 36 -70 255q35 93 70 93q232 0 232 -279q-55 -294 -325 -603q-230 -170 -278 -186h-256q-147 46 -209 46l-23 -232q0 -80 23 -487l-69 -47h-24q-116 70 -116 163q23 609 23 905
q0 25 -23 70l23 46l-23 47q0 24 23 69q0 45 -46 163l23 93l-23 162q80 186 116 186z" />
    <glyph glyph-name="paragraph" unicode="&#xb6;" horiz-adv-x="1578" 
d="M965 1856l93 -24q38 24 116 24q0 -23 185 -93l23 -47q0 -116 -23 -348q23 -307 23 -510q24 0 24 -23l46 23h23l23 -116v-46q0 -16 -116 -116v-557q0 -121 -69 -139h-93q-33 0 -70 69q0 27 47 255v279q0 46 -70 46q-60 0 -162 -69l23 -47q0 -114 -46 -441q23 -92 23 -162
l-70 -46h-23q-120 0 -139 69q46 347 46 580v70q-719 185 -719 487q226 742 487 742q117 140 418 140zM988 1647v-232q0 -23 -23 -23l23 -47v-325q0 -23 -23 -23q0 -23 23 -23q-23 -128 -23 -186q23 -45 23 -69h46q78 0 163 69l-23 47v93q0 69 23 69l-23 116v395
q-7 41 -186 139zM292 1044q23 -45 23 -70h-23q0 -133 487 -255l23 116q-23 45 -23 69h23l-23 47q23 165 23 185q-23 159 -23 256h23q-23 40 -46 208q23 0 23 24h-69q-248 -110 -418 -534v-46z" />
    <glyph glyph-name="bullet" unicode="&#xb7;" horiz-adv-x="998" 
d="M385 1322q510 0 510 -186l23 -162q-216 -487 -487 -487h-46q-224 0 -325 255q0 322 325 580z" />
    <glyph glyph-name="bullet" unicode="&#x2219;" horiz-adv-x="998" 
d="M385 1322q510 0 510 -186l23 -162q-216 -487 -487 -487h-46q-224 0 -325 255q0 322 325 580z" />
    <glyph glyph-name="bullet" unicode="&#x2022;" horiz-adv-x="998" 
d="M385 1322q510 0 510 -186l23 -162q-216 -487 -487 -487h-46q-224 0 -325 255q0 322 325 580z" />
    <glyph glyph-name="cedilla" unicode="&#xb8;" horiz-adv-x="548" 
d="M60 -290q85 -52 152 -52q66 0 94.5 21.5t28.5 66.5t-49 64q-40 16 -102 16q-16 0 -34 -2l48 176h63l-37 -104q32 4 62 5q86 0 134 -40.5t48 -113.5q0 -76 -58.5 -120.5t-160.5 -44.5q-109 0 -189 32v96z" />
    <glyph glyph-name="guillemotright" unicode="&#xbb;" horiz-adv-x="2043" 
d="M873 1903q133 0 394 -278q402 -356 534 -441q140 0 163 -186q-63 -232 -163 -232v46h-46q-390 -318 -441 -557q-84 -348 -232 -348l-93 116v46q298 575 557 813q70 76 70 116q-285 353 -743 673q-93 0 -93 93q0 116 93 139zM106 1671h140q209 -185 696 -557q0 31 116 116
q140 0 140 -139v-47q-116 -325 -256 -325q-144 0 -603 -580l-116 -70h-93q-34 0 -70 70q0 110 348 371l349 372v93q-82 115 -674 557v23z" />
    <glyph glyph-name="questiondown" unicode="&#xbf;" horiz-adv-x="1254" 
d="M524 2066q140 0 140 -163q-55 -139 -93 -139h-23q-142 74 -163 163q0 139 139 139zM617 1532q116 -88 116 -464q0 -283 -255 -442q-163 -203 -163 -325v-46q0 -464 372 -464h23q181 99 209 162v70q0 22 -46 186q7 46 46 46h93q162 -46 162 -279q-41 0 -92 -232
q-291 -186 -442 -186q-534 66 -534 511q0 70 -46 70q0 426 348 743q93 178 93 278v70q-70 85 -70 163q65 139 186 139z" />
    <glyph glyph-name="Agrave" unicode="&#xc0;" 
d="M501 2228h47q95 -64 441 -185q278 -68 278 -163v-116q0 -36 -93 -93q-393 254 -626 279q-163 52 -163 186q2 32 116 92zM687 1787h46q180 -53 697 -1602q70 -197 70 -325q0 -186 -140 -186h-23q-33 0 -70 70v47l24 139q-177 627 -233 627q-627 -59 -627 -116
q-146 -627 -208 -627q-131 0 -163 116q302 719 488 1486q23 371 139 371zM733 1393l-209 -674q163 0 186 -23q302 60 302 116q-127 382 -279 581z" />
    <glyph glyph-name="Aacute" unicode="&#xc1;" horiz-adv-x="1905" 
d="M1267 2437q47 -76 47 -139v-23q0 -77 -349 -139l-301 -209h-47q-139 0 -139 139q0 84 348 209q132 116 441 162zM826 1880h139q35 0 186 -348q223 -236 674 -1625v-24q-35 0 -93 -69h-93q-70 146 -139 487q-131 358 -186 395q0 -116 -441 -116q-50 0 -256 23
q-116 -98 -255 -464q-81 -203 -116 -232h-116q-34 0 -70 69v93q302 363 673 1579v139q0 37 93 93zM664 812q294 -46 371 -46q109 69 232 93v23q-61 271 -348 627q-39 0 -279 -697h24z" />
    <glyph glyph-name="Acircumflex" unicode="&#xc2;" horiz-adv-x="1742" 
d="M803 2368q48 0 371 -256q209 -65 209 -209v-23q0 -36 -92 -93h-70q-285 256 -395 256q-348 -308 -348 -372h-47q-36 0 -92 93v70q294 279 418 511zM803 1718h23q141 0 186 -186q139 -325 279 -859q162 -422 371 -813q-39 -116 -116 -116q-232 136 -232 163v46l46 70
q-232 531 -232 557h-23l-93 -70q-25 0 -70 24q-185 -47 -394 -47q-102 -344 -349 -650h-46q-36 0 -93 93v23q325 443 325 743q199 54 302 952q40 0 116 70zM640 696h117q218 47 325 47l-209 626q-47 0 -163 -487q-23 0 -70 -186z" />
    <glyph glyph-name="Atilde" unicode="&#xc3;" horiz-adv-x="1905" 
d="M1174 2321h24q209 0 209 -116q-83 -278 -395 -278q-232 139 -255 139q-34 0 -209 -232q-140 0 -140 139v23q148 279 209 279h140q117 0 278 -93q139 0 139 139zM826 1741h70q139 0 232 -256q209 -348 697 -1509q-24 -139 -70 -139h-116q-57 46 -93 46v163q0 23 23 23
q-222 534 -278 534h-70q-241 -93 -511 -93h-70q-53 -9 -209 -441q-197 -278 -232 -278q-116 0 -139 92q0 41 116 163q248 318 302 673q49 57 325 975q23 0 23 47zM896 1393q-209 -592 -209 -650l46 -24h186q60 0 302 93v70q-256 465 -256 511h-69z" />
    <glyph glyph-name="Adieresis" unicode="&#xc4;" horiz-adv-x="1765" 
d="M942 2298q70 0 93 -186q-58 0 -70 -92h-116q-69 23 -69 139v46q37 93 162 93zM339 2182q205 -23 255 -23v-23q-30 -233 -209 -233q-116 13 -116 186q35 93 70 93zM733 1834h47q627 -864 627 -1115q232 -429 232 -487v-23q0 -24 -23 -24q69 -188 69 -348q-76 -46 -139 -46
h-46q0 59 -140 232v69l47 70q-70 163 -93 372q-47 0 -140 301h-23q0 -209 -162 -209h-349l-116 24q-175 -598 -325 -790h-69q-34 0 -70 70q325 749 325 882q163 407 232 975v24zM594 859q85 -47 186 -47q64 0 278 70q41 -23 93 -23q-77 209 -348 603h-23q-53 0 -186 -603z
" />
    <glyph glyph-name="Aring" unicode="&#xc5;" horiz-adv-x="1649" 
d="M687 2182q101 0 255 -255v-70q0 -167 -348 -209h-23q-195 0 -302 186q40 348 395 348h23zM640 1973v-46h-116q-46 -8 -46 -47q46 0 46 -23l116 23h70v93h-70zM664 1602q217 0 534 -651l371 -998v-46q-38 -93 -162 -93q-70 29 -186 534q-101 325 -139 325q0 -93 -186 -116
l-116 23q-372 0 -372 -163q-187 -530 -232 -534l-46 -23q-45 23 -70 23v93q0 107 302 813q139 403 186 743q76 70 116 70zM733 1300q-185 -407 -185 -534h69q271 0 372 46v-46h46v23q-83 295 -302 511z" />
    <glyph glyph-name="AE" unicode="&#xc6;" horiz-adv-x="2067" 
d="M965 1880h117l116 -93q39 0 557 70h93q139 -15 139 -70v-69q0 -110 -70 -163q-94 0 -185 139q-575 -128 -581 -162q0 -93 -23 -93l23 -232v-395l163 23h46q52 0 93 -23l139 70q168 0 186 -93q-41 -163 -162 -163h-372q-70 -23 -70 -139q24 -288 24 -302l-24 -139
q24 0 24 -23q308 23 348 69h93q162 0 162 -162v-47q0 -53 -116 -69q0 18 -69 69q-163 -46 -511 -69q-93 0 -140 186q47 161 47 278v70q0 120 -70 139h-69l-116 -23v23q-233 -40 -233 -139v-23l24 -47q0 -47 -209 -302q-89 -229 -140 -232h-69q-34 0 -70 70v23q0 53 163 348
q0 41 116 232l487 1068q63 119 93 326q46 0 46 69zM919 1253q-129 -206 -255 -580h23q278 0 278 46q0 24 24 24l-24 46v418q0 46 -46 46z" />
    <glyph glyph-name="Ccedilla" unicode="&#xc7;" horiz-adv-x="1440" 
d="M1221 1671h23q35 0 70 -93q-55 -162 -93 -162l-279 46q-251 0 -603 -580q-70 -252 -70 -488q140 -418 650 -418q67 0 348 186q93 -35 93 -70v-116q-187 -209 -441 -209v-23q70 -80 70 -232q0 -274 -441 -325l-70 93v93q0 58 255 93l24 46q0 130 -209 209l-24 46v24l24 46
q-488 186 -488 650q0 589 627 1091q336 93 534 93z" />
    <glyph glyph-name="Egrave" unicode="&#xc8;" horiz-adv-x="1696" 
d="M385 2275l650 -116l23 -47v-69q-1 -32 -116 -93h-23q-483 98 -557 139q-41 0 -47 116v23q0 47 70 47zM1198 1811h93q33 0 69 -70v-93q-46 -57 -46 -93h-70q-76 70 -116 70q-291 -70 -627 -116q-45 23 -70 23q-23 -63 -92 -604q56 -23 232 -46q358 116 394 116
q93 -18 93 -47q-23 -208 -93 -208h-23l-139 23q-183 -70 -232 -70h-209q-70 0 -93 -325q0 -23 23 -23l-23 -116v-70q36 -209 186 -209q507 0 1114 116q47 -56 47 -93l-24 -46q24 -45 24 -70q-116 -69 -186 -69q-23 0 -23 23q-380 -47 -999 -70q-348 47 -348 302
q46 342 70 650q-24 128 -24 186q61 0 117 441l-24 46l24 116q-47 85 -47 209q23 93 139 93h47q107 -69 186 -69l46 23q23 0 23 -23z" />
    <glyph glyph-name="Eacute" unicode="&#xc9;" horiz-adv-x="1742" 
d="M1012 2136h116q46 -8 46 -47v-139q0 -31 -301 -163l-163 -116q-120 0 -139 70q0 139 278 255q0 42 163 140zM1453 1532q93 -18 93 -47q0 -134 -186 -185q-24 0 -69 23l-442 -46q-125 23 -209 23q-232 0 -232 -395q-30 0 -46 -162q23 0 23 -24l116 24l116 -24q45 24 70 24
q23 0 23 -24q221 47 279 47q139 0 139 -93q0 -151 -186 -163l-93 24q-580 0 -580 -163v-279q0 -23 -23 -23l23 -46l-23 -47l46 -23h93q396 -70 929 -93l23 47q325 -54 325 -116l-23 -47q23 -45 23 -70q-81 -69 -232 -69q-59 35 -256 69q-23 0 -23 -23q-249 29 -302 47
l-46 -24q-298 47 -348 47l-325 -23q-70 98 -70 185q0 315 186 1394v116q46 56 46 92h697q232 0 464 47z" />
    <glyph glyph-name="Ecircumflex" unicode="&#xca;" horiz-adv-x="1835" 
d="M1012 2182h116q0 -131 255 -232h70q47 -76 47 -139v-24q0 -36 -93 -93h-70q-272 209 -348 209q-60 0 -256 -232h-46q-36 0 -93 93q0 71 302 372q0 40 116 46zM1476 1602q93 -35 93 -70v-139h-209q-367 -70 -580 -70v23l-47 -23h-255l-47 -557h186q52 0 93 -23
q0 23 488 46q46 -76 46 -139q0 -39 -139 -93l-116 23q-450 -32 -465 -46q-40 23 -93 23h-46q-23 -484 -93 -720l47 -23h69l116 23v-23q41 23 209 46q24 0 24 -23q812 85 812 116h70q116 -17 116 -70v-46q0 -63 -47 -139q-272 23 -394 23q-878 -116 -1068 -116
q-150 0 -186 209v46q93 193 163 674q69 633 69 882v69q0 34 70 70h69q24 0 24 -23q23 0 23 23q216 -46 371 -46q93 0 627 93z" />
    <glyph glyph-name="Edieresis" unicode="&#xcb;" horiz-adv-x="1858" 
d="M1291 2205h23q69 -23 69 -139v-23q0 -37 -92 -93q-140 47 -140 93v93q23 69 140 69zM687 2182h70q60 0 92 -186q-37 -116 -139 -116q-116 32 -116 163v46q0 36 93 93zM1291 1764v-23l46 23h255q172 0 186 -70v-46q-46 -58 -46 -116h-47q-63 0 -139 46q-952 -61 -952 -139
q-116 -424 -116 -488v-23l46 23q166 -23 186 -23q143 0 557 116q45 -23 70 -23v-93q-77 -116 -93 -116l-464 -69h-232l-70 46h-47q-51 -434 -92 -557q0 -23 23 -23l-23 -117v-92l185 -47q620 23 999 70l69 -116v-24q-46 0 -92 -139q-186 32 -186 70l-47 -23
q-619 -24 -1137 -70l-70 116q28 186 93 186v46q79 455 93 465l-23 46q162 900 208 998q28 0 140 140h209q23 0 23 -24q153 38 488 70z" />
    <glyph glyph-name="Igrave" unicode="&#xcc;" horiz-adv-x="651" 
d="M130 2205h116q302 -102 302 -255l-24 -116h-93l-371 232v70q0 33 70 69zM455 1741q66 -3 116 -139q-77 -1430 -140 -1649q24 -45 24 -70q-28 -185 -93 -185h-47l-92 116q116 468 116 1532v93l-24 232z" />
    <glyph glyph-name="Iacute" unicode="&#xcd;" horiz-adv-x="813" 
d="M524 2298h140q54 0 69 -162q-76 -64 -255 -116q-5 -37 -255 -233h-93q-70 24 -70 140v46q88 0 464 325zM617 1811h23q47 -8 47 -47v-116q0 -352 -139 -929q0 -23 23 -23q-101 -854 -140 -905l-139 -24q-69 127 -69 209q132 0 255 1788q76 47 139 47z" />
    <glyph glyph-name="Icircumflex" unicode="&#xce;" horiz-adv-x="1069" 
d="M548 2437q187 -118 441 -371q0 -44 -70 -186h-139l-209 256h-70l-302 -279q-120 0 -139 70v23q0 104 348 395q0 54 140 92zM385 1857q186 0 186 -418v-325q0 -148 -186 -929q0 -348 -162 -348q-93 23 -93 139v47q232 796 232 1045v371q0 97 -93 232q62 175 116 186z" />
    <glyph glyph-name="Idieresis" unicode="&#xcf;" horiz-adv-x="790" 
d="M571 2321h46q37 0 93 -93v-23q0 -139 -139 -139h-23q-32 0 -117 116q0 139 140 139zM130 2159q162 0 162 -163v-23q0 -116 -93 -139q-139 58 -139 209v46q70 0 70 70zM408 1927h70q35 0 70 -93q-24 -488 -47 -511q0 -23 23 -23l-23 -116v-186q0 -23 -23 -23l23 -47v-139
q0 -23 -23 -23l23 -47v-69q0 -96 -23 -186q23 -90 23 -186v-46q0 -178 -93 -209q-162 0 -162 278q93 0 93 1579z" />
    <glyph glyph-name="Eth" unicode="&#xd0;" horiz-adv-x="1881" 
d="M524 1764q638 0 1138 -464q139 -230 139 -488v-116q0 -595 -394 -696q-88 0 -372 -186h-325q-23 0 -23 23q-23 0 -23 -23q-209 0 -209 348q0 441 -70 441q-51 -41 -232 -69q-93 34 -93 69v116q38 0 70 47q131 0 255 46q-23 314 -23 465v162l-93 93v46q0 138 255 186z
M617 1555q-46 -76 -46 -139v-325q0 -279 139 -279l47 -93q0 -93 -140 -93v-69q0 -581 209 -581q766 210 766 511q24 90 24 186v116q0 23 23 23q-135 511 -348 511q0 139 -674 232z" />
    <glyph glyph-name="Ntilde" unicode="&#xd1;" 
d="M1105 2368h46l23 -116q0 -197 -325 -372h-23q-40 0 -232 93l-163 -139h-23q-93 23 -93 139q91 181 186 232h70q86 0 232 -93h23q116 70 116 186q109 70 163 70zM1337 1764h93q40 0 70 -116q-24 -176 -47 -232l23 -139v-47q0 -165 -46 -255q0 -24 23 -24
q-70 -411 -70 -882v-139q-1 -32 -116 -93h-46q-83 54 -488 789q-78 78 -325 465h-46v-23l-23 -279q0 -23 23 -23q0 -59 -70 -697l23 -93q-54 -139 -92 -139h-47q-116 60 -116 186q116 204 116 766q0 187 -23 441q16 325 93 325h69q39 0 70 -162q393 -440 395 -534l394 -581
h24q116 1115 116 1184q-47 119 -47 186q30 116 70 116z" />
    <glyph glyph-name="Ograve" unicode="&#xd2;" horiz-adv-x="1905" 
d="M640 2368l279 -186q186 -18 186 -116q-55 -139 -93 -139q-74 0 -418 209q-93 23 -93 139v23q23 70 139 70zM965 1811q101 0 256 -117q534 -147 534 -510q23 0 70 -209q-24 -41 -24 -93t24 -93q-33 -466 -395 -952q-204 -116 -279 -116q-603 0 -789 302q-302 347 -302 673
q0 453 720 1045q185 32 185 70zM873 1578q-627 -504 -627 -882q0 -329 441 -696q135 -70 325 -70l116 23v-23q370 0 511 905v24q0 476 -279 626q-129 65 -487 93z" />
    <glyph glyph-name="Oacute" unicode="&#xd3;" horiz-adv-x="1905" 
d="M942 2205h93q172 0 186 -93q0 -85 -279 -185q-81 -140 -209 -140h-23q-33 0 -70 70v46q0 40 233 209q69 58 69 93zM873 1578q491 0 859 -557q65 -134 93 -487q0 -206 -233 -581q-324 -371 -580 -371q-656 0 -929 534q-23 125 -23 209v209q0 725 813 1021v23zM246 580
v-232q0 -413 603 -557h256q314 184 511 557q0 139 23 139q0 585 -465 859h-46q0 -69 -46 -69h-47q-107 69 -186 69q-304 0 -557 -534q-46 -186 -46 -232z" />
    <glyph glyph-name="Ocircumflex" unicode="&#xd4;" horiz-adv-x="2067" 
d="M989 2182h46q66 0 325 -186q107 0 186 -139q-36 -139 -163 -139h-23q-278 187 -278 209q-218 -135 -325 -233h-93l-24 117v23q0 48 349 348zM1267 1578q534 -153 534 -325q77 0 186 -487v-279q0 -260 -441 -696q-274 -209 -557 -209h-70q-325 0 -534 185
q-325 217 -325 511v93q4 271 209 697q387 510 998 510zM246 371q0 -405 534 -580l116 -24q574 0 905 697v209q0 384 -255 650l-116 -23h-70q-112 93 -186 93q-413 0 -743 -442q-185 -388 -185 -580z" />
    <glyph glyph-name="Otilde" unicode="&#xd5;" horiz-adv-x="1974" 
d="M664 2368q180 0 371 -163l116 70h116q34 0 70 -70v-23q-31 -255 -232 -255v23l-47 -23q-139 77 -278 185q-140 -42 -140 -139h-116q-33 0 -69 70q116 325 209 325zM1035 1671q45 0 209 -93l47 24q603 -199 603 -651q0 -898 -812 -1160l-117 -24q-139 0 -510 209
q-313 137 -372 302q-23 41 -23 93q0 566 418 998q338 292 557 302zM989 1393q-92 23 -163 23q-534 -388 -534 -836q-46 0 -46 -163q0 -171 719 -441q674 204 674 627q46 0 46 348v24q0 321 -418 464z" />
    <glyph glyph-name="Odieresis" unicode="&#xd6;" horiz-adv-x="1997" 
d="M1383 2368h24q162 0 162 -163v-23q-38 -93 -162 -93q-32 0 -116 116v70q0 36 92 93zM826 2345h23q93 -38 93 -163q0 -120 -69 -139h-70q-126 0 -163 139q0 139 186 163zM1360 1694q557 -193 557 -835v-256q0 -307 -603 -789q-198 -23 -302 -23q-418 0 -859 534
q-93 177 -93 487q0 254 418 604q372 278 882 278zM1151 1416h-23q-63 0 -139 46q-487 -143 -720 -557l-23 -162q0 -399 557 -697q76 -46 139 -46h70q414 0 720 557q0 77 23 116q0 761 -441 859h-23z" />
    <glyph glyph-name="Oslash" unicode="&#xd8;" horiz-adv-x="1905" 
d="M1569 1741q209 -23 209 -93v-23q0 -149 -93 -186q-139 -109 -139 -186q279 -218 279 -487q0 -638 -511 -1092q-209 -92 -441 -92q-813 210 -813 534v209q301 1114 813 1114h46l23 93q71 0 465 -139q159 249 162 348zM1221 1300q0 -47 -47 -47l-209 24q-329 0 -557 -511
q-58 0 -162 -534q0 -182 139 -256h23q883 1181 883 1301q-25 0 -70 23zM1407 1091l-813 -1184v-47l325 -93q512 0 697 790q23 81 23 232q0 110 -139 302h-93z" />
    <glyph glyph-name="Ugrave" unicode="&#xd9;" 
d="M571 2321q261 0 441 -278v-47q0 -33 -70 -69q-460 203 -464 278v47q0 58 93 69zM339 1787h23q46 -7 46 -46q-139 -774 -139 -1115q138 -650 371 -650q0 -23 24 -23q343 0 441 325q108 152 209 790q0 23 -23 23l23 232v418q7 46 46 46h116l24 -162v-23q0 -1596 -604 -1835
l-47 -23h-232q-394 180 -394 372q-54 0 -163 487q23 41 23 93q0 25 -23 70q46 84 116 952q85 69 163 69z" />
    <glyph glyph-name="Uacute" unicode="&#xda;" horiz-adv-x="1533" 
d="M1035 2159h47q33 0 69 -70v-69l-441 -349h-23q-93 48 -93 116q21 100 441 372zM1314 1741q59 0 139 -186q-23 -122 -23 -139l23 -116q-171 -1096 -488 -1324q-157 -232 -371 -232h-70q-464 292 -464 673q23 428 23 534l-23 163h23l-23 46q0 24 23 24l-23 46q0 23 23 23
l-23 47q0 23 23 23l-23 46q12 279 70 279h69q34 0 70 -70v-348q0 -52 -23 -93q23 -45 23 -69h-23l23 -47v-93q0 -134 -23 -371l23 -47q-23 -45 -23 -69q0 -235 348 -488h46q391 247 558 952q0 65 69 395q0 87 -69 371q76 70 116 70z" />
    <glyph glyph-name="Ucircumflex" unicode="&#xdb;" horiz-adv-x="1672" 
d="M664 2112q418 -74 418 -162v-139q-47 0 -47 -47h-46q-85 0 -209 93q-78 0 -209 -116h-47l-46 70v23q0 123 186 278zM176 1578h23l116 -23q-46 -774 -46 -975q162 -697 418 -697h70q314 104 487 395q70 139 163 557q-47 563 -47 674l116 23q37 0 93 -93q0 -120 23 -464
q-92 -882 -301 -952q-285 -349 -534 -349q-562 0 -674 860q0 70 -23 162h23q0 23 -23 23q30 379 46 395q-23 38 -23 116q0 348 93 348z" />
    <glyph glyph-name="Udieresis" unicode="&#xdc;" horiz-adv-x="1533" 
d="M431 2182q209 -29 209 -139q-58 -163 -185 -163h-24q0 29 -92 163q54 139 92 139zM803 2159h116q57 -47 93 -47v-46l-47 -163q-232 43 -232 163q35 93 70 93zM1291 1787h46q116 -46 116 -162v-395q0 -348 -186 -836q-327 -487 -510 -487h-24q-23 0 -23 23q-23 0 -23 -23
q-497 0 -581 836q0 565 -46 859q35 92 70 92h116q39 -202 69 -766l-23 -46q84 -766 372 -766q225 0 487 487q116 406 116 720v209h-46v186q0 33 70 69z" />
    <glyph glyph-name="Yacute" unicode="&#xdd;" horiz-adv-x="1278" 
d="M849 2182q47 -7 47 -46v-93q-211 -232 -279 -232l-46 69q0 279 232 302h46zM1105 1764h23q33 0 70 -70v-69q-452 -491 -650 -975l23 -140q-23 -209 -116 -580h-116q-34 0 -70 70q93 314 93 371l-70 139h47v24q0 126 -93 185l23 116q-78 419 -209 720v70l116 23h47
q71 0 208 -673l47 -24l464 743q85 70 163 70z" />
    <glyph glyph-name="Thorn" unicode="&#xde;" horiz-adv-x="1324" 
d="M292 1555h47l23 -116v-93l-23 -46l46 -23h70l162 23q0 -37 465 -116q162 -132 162 -302v-70q0 -673 -487 -673q-172 0 -488 70l-23 -117q23 -197 23 -301l-70 -47h-23q-115 61 -116 93v116q0 23 23 23l-23 47l23 139l-23 47q15 208 46 208l-23 47q70 530 70 627l-23 93
q46 348 69 348q41 23 93 23zM339 1021v-23q0 -86 -70 -557q236 -93 441 -116q348 98 348 371v116q0 211 -371 256h-186z" />
    <glyph glyph-name="germandbls" unicode="&#xdf;" horiz-adv-x="1672" 
d="M1058 1857h256q236 -110 278 -232v-93q0 -364 -278 -604q128 0 209 -418v-139q-93 -348 -349 -348q-164 -47 -255 -47l-580 116q-24 -301 -116 -301h-70q-61 0 -93 162q178 377 441 1579q27 0 139 255q264 70 418 70zM408 301l488 -139q358 0 395 279v69q0 136 -93 233
q-25 0 -372 -70h-69q-37 0 -93 93v93q0 62 325 92q418 256 418 558q-123 162 -209 162q-45 -23 -70 -23v23l-46 -23q-53 0 -93 23q-364 0 -581 -1370z" />
    <glyph glyph-name="agrave" unicode="&#xe0;" horiz-adv-x="1394" 
d="M640 2043h24q239 -189 278 -325q-35 -93 -69 -93h-70q-22 0 -279 302v93zM455 1277h418q441 -267 441 -674v-69q-47 -523 -47 -558v-116q-46 -56 -46 -93h-139q-24 0 -24 24l-46 -24q-17 0 -139 24q-214 -47 -256 -47q-382 0 -557 557v116q89 349 488 349q66 0 464 -70
h93q0 180 -256 348q-232 24 -232 47l-46 -23h-186l-162 -24l-47 70v70q0 52 279 93zM269 394v-23q0 -350 348 -418q465 0 465 232q23 92 23 163l-23 46q23 41 23 93q-65 0 -348 93h-302q-186 0 -186 -186z" />
    <glyph glyph-name="aacute" unicode="&#xe1;" horiz-adv-x="1533" 
d="M1035 2089q23 0 23 -23q45 23 70 23q116 -39 116 -116q0 -42 -232 -186q-141 -139 -232 -139h-23l-24 116v47q302 218 302 278zM362 1253q23 0 23 -23l232 23h93q511 -93 511 -232q186 -168 186 -534q0 -60 -47 -278q93 -256 93 -349q-46 -75 -46 -116h-116l-117 186h-23
l-557 -139q-534 94 -534 371q0 444 232 557q260 140 627 140l46 -24q45 24 70 24q0 -35 93 -70v46q-28 0 -139 140q-82 69 -441 93q-90 -24 -186 -24h-47q-46 0 -46 47v23q0 116 93 139zM269 417q0 -23 23 -23l-23 -116v-46q0 -169 279 -256q626 79 626 302q0 38 24 279
q-334 133 -395 139q-250 0 -488 -209q-23 -70 -46 -70z" />
    <glyph glyph-name="acircumflex" unicode="&#xe2;" horiz-adv-x="1556" 
d="M664 2182h23q54 0 209 -93q116 0 116 -46v-23q0 -163 -116 -233h-93l-163 140q-87 -140 -116 -140h-46l-70 47q0 149 256 348zM548 1323q756 0 812 -372q116 -196 116 -673q-54 -487 -139 -487h-93q-58 0 -70 92q-407 -116 -510 -116q-244 0 -511 349q-52 62 -93 232
q0 301 488 464q180 0 696 -139q-83 316 -209 371q-122 70 -278 70q-65 0 -465 -23l-46 69q0 163 302 163zM269 325q189 -372 441 -372q534 135 534 209q23 122 23 232v140l-46 -24l-464 116h-163q-325 -77 -325 -301z" />
    <glyph glyph-name="atilde" unicode="&#xe3;" horiz-adv-x="1440" 
d="M385 2275h209q23 0 116 -116q140 93 186 93q116 0 116 -232q-253 -117 -302 -117h-23q-111 0 -186 117v23q-206 -23 -255 -23q-47 76 -47 139v46q15 70 186 70zM362 1485h46l604 -185q110 0 209 -163q139 -134 139 -441v-209q-139 -623 -139 -650h-70q-55 0 -186 93
q-330 -47 -464 -47h-70q-371 115 -371 418v47q0 280 371 534q53 0 93 23l47 -23q116 0 116 46q232 -23 418 -116q-23 -209 -70 -209q-64 0 -232 116q-46 0 -46 24q-488 -70 -488 -395q0 -279 279 -279q580 56 580 348q23 243 23 395q0 254 -720 465h-139l-69 -47h-93
q-35 0 -70 93q0 162 302 162z" />
    <glyph glyph-name="adieresis" unicode="&#xe4;" horiz-adv-x="1487" 
d="M408 1811q127 0 186 -117v-46q-44 -84 -139 -116q-140 36 -140 162q61 115 93 117zM919 1764h116q47 -7 47 -46v-116q0 -34 -70 -70h-70q-48 10 -93 116q70 89 70 116zM548 1300q464 0 673 -302q186 -524 186 -998q0 -93 -302 -117v24q-473 -140 -650 -140h-24
q-371 0 -371 604q126 348 325 348q0 55 186 70q24 0 69 -23l93 23q87 0 372 -70v24q0 253 -418 348q-158 -28 -209 -70h-47q-56 47 -92 47v139zM246 301q38 -325 162 -325l93 -23q697 155 697 209q0 23 -24 23l24 116v24q0 255 -302 255q0 41 -279 46q-371 -92 -371 -325z
" />
    <glyph glyph-name="aring" unicode="&#xe5;" horiz-adv-x="1626" 
d="M780 2020h93q209 -115 209 -302q-86 -256 -233 -256q0 -23 -23 -23h-93q-115 37 -209 279v46q0 15 256 256zM780 1764v-116h23q33 0 70 70zM455 1300h232q370 0 650 -557q46 -175 46 -326v-255q0 -93 140 -209l23 -162q-76 -70 -116 -70q-35 0 -139 116l-70 -46h-139
q-394 -47 -442 -47h-162q-302 0 -395 441q-23 87 -23 209v23q0 326 557 326q0 23 70 23q157 0 441 -93h23v23q-225 418 -557 418q-35 0 -209 -46q0 58 -93 69q18 163 163 163zM269 441v-163q65 -348 232 -348q464 0 627 93q45 -23 70 -23v510l-116 -23h-24q-67 70 -394 116
q-395 -55 -395 -162z" />
    <glyph glyph-name="ae" unicode="&#xe6;" horiz-adv-x="2671" 
d="M1917 1277q241 0 395 -233q116 -59 116 -185v-70q-48 -163 -278 -163q-743 -123 -743 -209v-23q0 -325 534 -325h185q192 0 256 186l93 23q61 0 116 -116q0 -207 -372 -325q-494 23 -580 23q0 40 -279 140l-23 -47l23 -46q-65 -183 -139 -233h-139q-70 18 -117 163
q-214 -70 -487 -93q-418 70 -418 325q0 282 511 581h255q139 0 139 -140v-116h-46q-22 0 -186 47h-139q-78 0 -302 -302v-70q0 -74 256 -116q191 23 580 139q-31 720 -232 720q-169 47 -348 47q-23 0 -163 -116h-93q-46 0 -46 46v23q77 279 185 279h47q743 -37 743 -279v-23
h23q174 286 302 302q0 75 371 186zM1476 766v-47q423 47 650 140v92q-45 117 -255 117q-310 -138 -395 -302z" />
    <glyph glyph-name="ccedilla" unicode="&#xe7;" horiz-adv-x="1301" 
d="M664 1277h278q34 0 70 -70v-93q-47 -93 -70 -93q-35 0 -278 70h-70q-348 -103 -348 -557q0 -188 394 -256h47q277 0 418 47q116 -24 116 -93q0 -131 -441 -163v-116q0 -197 -140 -279h-46q-35 0 -116 140q103 0 139 255q-557 74 -557 511q0 316 302 650q104 47 302 47z
" />
    <glyph glyph-name="egrave" unicode="&#xe8;" horiz-adv-x="1533" 
d="M501 1973h47q135 0 325 -279q-24 -92 -140 -92h-23q-255 167 -255 301v24q7 46 46 46zM571 1369h139q175 0 557 -209l186 -325q-13 -162 -139 -162q-256 18 -256 46l-46 -23q-23 0 -23 23l-47 -23q-52 0 -93 23l-46 -23l-116 23l-47 -23q-116 23 -116 47l-46 -24h-70
q-77 0 -162 70v-46q0 -248 511 -511h185q209 30 209 116h116l116 -23v-47q0 -186 -139 -186q-75 0 -302 -46h-209q-240 0 -557 395q-116 187 -116 302v139q155 487 511 487zM292 928q228 0 627 -46l46 23q24 0 24 -23l116 23h69v46q-71 209 -580 256q-302 -72 -302 -279z
" />
    <glyph glyph-name="eacute" unicode="&#xe9;" horiz-adv-x="1649" 
d="M965 2066l93 -93v-93q-150 -28 -325 -186h-69q-47 0 -47 47v93q154 232 348 232zM873 1555h46q338 0 627 -418l23 -116q0 -116 -186 -116q-76 46 -139 46h-487q-151 0 -465 24l-23 -163v-162q0 -295 464 -395h24q371 62 371 116q209 0 209 -139q0 -106 -627 -163
q-252 0 -441 186q-209 191 -209 488q81 487 232 487q301 286 581 325zM524 1207v-47q204 -23 233 -23q11 0 92 23q118 -46 163 -46q159 23 255 23q-155 232 -371 232q-84 0 -372 -162z" />
    <glyph glyph-name="ecircumflex" unicode="&#xea;" horiz-adv-x="1510" 
d="M826 2205h163q0 -64 69 -93q0 -55 116 -162v-70q-69 -76 -69 -116q-23 0 -23 23l-47 -23h-23q0 33 -93 93l-23 93h-47q-17 0 -162 -163h-47q-36 0 -92 93q0 93 278 325zM826 1532h209q395 -201 395 -557l-139 -70q-159 23 -256 23h-23l-163 -23v23l-46 -23q-23 0 -23 23
q-45 -23 -70 -23l-46 23l-47 -23q-53 0 -348 46v-69q0 -372 232 -372q108 -69 372 -69h232q76 69 116 69q162 -18 162 -116q-32 -96 -116 -139h-510q-697 0 -697 627q49 285 232 441q226 209 534 209zM385 1160v-23q209 -14 209 -46l46 23l163 -23q348 0 348 116v23
q-151 139 -255 139h-23q-297 0 -488 -209z" />
    <glyph glyph-name="edieresis" unicode="&#xeb;" horiz-adv-x="1533" 
d="M1128 2136q116 -140 116 -163q0 -70 -139 -139q-106 45 -116 93v116q46 93 139 93zM594 2089h23q125 0 163 -93v-93q-51 -116 -163 -116q-69 85 -69 163v93q7 46 46 46zM780 1602q225 0 557 -279q53 -116 70 -116q0 -325 -186 -325h-47l-116 69l-371 -23q-138 23 -372 23
l-46 -116q93 -441 789 -441h24q74 0 278 116q93 -34 93 -69v-47q0 -209 -418 -209q-432 54 -743 209q-188 168 -232 395q0 220 255 488q284 306 465 325zM501 1184v-24q209 -46 302 -46q52 0 93 23l46 -23q99 0 186 163q-142 116 -279 116h-92q-163 -78 -256 -209z" />
    <glyph glyph-name="igrave" unicode="&#xec;" horiz-adv-x="651" 
d="M246 1787q325 -100 325 -139v-93q-23 -70 -140 -70h-46q-182 101 -209 163v70q0 33 70 69zM269 1137h116l23 -116q0 -97 -116 -905q23 -41 23 -93q0 -186 -139 -186h-46q-70 140 -70 163q46 53 93 557q23 0 46 186q0 23 -23 23q39 371 93 371z" />
    <glyph glyph-name="iacute" unicode="&#xed;" horiz-adv-x="744" 
d="M548 2066q75 -46 116 -46v-24q0 -140 -349 -394l-116 -24l-46 70v46q6 53 255 233q43 139 140 139zM385 1184h23l70 -47q-186 -673 -186 -975q47 -7 47 -46v-70q-67 -116 -140 -116q-139 29 -139 209v23l209 998z" />
    <glyph glyph-name="icircumflex" unicode="&#xee;" horiz-adv-x="790" 
d="M408 2043h47q156 0 255 -140v-116q0 -65 -186 -93q-87 140 -116 140l-139 -116h-46q-34 0 -70 69q0 194 255 256zM315 1184h93q47 -8 47 -47v-139q-186 -914 -186 -975q-57 -47 -93 -47q-116 33 -116 163q186 571 186 998z" />
    <glyph glyph-name="idieresis" unicode="&#xef;" horiz-adv-x="813" 
d="M640 1834h70l23 -116q0 -116 -162 -140q-93 24 -93 140v23q38 93 162 93zM246 1811h23q36 0 93 -93v-140q-100 -23 -163 -23l-93 93v93q24 70 140 70zM339 1253h23q139 0 139 -93l-23 -46l23 -46q-209 -802 -209 -906v-70h-23l-46 24q0 -47 -47 -47q-62 0 -116 116
q116 271 209 836v163q0 33 70 69z" />
    <glyph glyph-name="eth" unicode="&#xf0;" 
d="M989 1834q162 -32 162 -93v-23q0 -121 -69 -140h-233v-46q558 -185 558 -813v-139q0 -23 -24 -23q24 -240 117 -325v-70q-140 -217 -209 -255h-70q-23 69 -139 69q-347 -139 -465 -139h-93q-371 81 -371 348q0 528 487 766l117 -23h46l232 70q31 -23 116 -23
q0 202 -464 394q-122 24 -232 24q-86 0 -186 -256h-116q-93 48 -93 116q0 61 163 256q-117 107 -117 162q2 34 93 116q194 -46 418 -46q156 0 372 93zM942 696q0 47 -46 47h-23q-511 0 -511 -465v-46q0 -186 255 -186h70q377 116 511 209q0 23 -24 23l24 116v372h-24z" />
    <glyph glyph-name="ntilde" unicode="&#xf1;" horiz-adv-x="1394" 
d="M965 1927h93l116 -24v-23q0 -212 -394 -371h-47q-154 116 -209 116q0 -70 -93 -70q-44 23 -69 23v233l116 23h46q45 0 256 -116h23zM896 1323q348 -53 348 -348q39 -98 70 -929h-23l23 -46q-10 -48 -116 -93q-106 45 -116 93q23 499 23 743q-79 371 -186 371
q-258 0 -534 -557q-70 -220 -93 -511l-46 -23h-116q-70 14 -70 162q0 97 23 256l-23 139q0 23 23 23l-23 163v302q0 139 139 139q39 0 70 -139l-23 -140v-93q7 -46 46 -46q260 488 557 488z" />
    <glyph glyph-name="ograve" unicode="&#xf2;" horiz-adv-x="1440" 
d="M408 1787h116q0 -93 209 -162l47 -70q0 -127 -186 -139q0 40 -232 209l-23 46v47q0 33 69 69zM733 1230q43 0 163 -162q464 -118 464 -302q-69 -414 -232 -557q-331 -163 -604 -163q-390 0 -464 418q31 301 302 580q170 186 371 186zM269 580v-70q0 -278 325 -278
q475 0 557 464v70q0 81 -487 255h-47q-207 -116 -348 -441z" />
    <glyph glyph-name="oacute" unicode="&#xf3;" horiz-adv-x="1417" 
d="M826 1903h23l116 -23q0 -179 -278 -395h-23q-34 0 -70 70q0 107 232 348zM664 1114q243 -98 487 -116q186 -100 186 -255v-140q0 -416 -441 -673q-23 0 -23 23q-77 -46 -140 -46h-46q-511 109 -511 278q-116 140 -116 302q147 627 604 627zM269 510q0 -325 162 -325
q0 -28 233 -93q361 0 487 395v186q-36 209 -186 209q-15 0 -417 -70q-47 0 -47 70q-232 -160 -232 -372z" />
    <glyph glyph-name="ocircumflex" unicode="&#xf4;" horiz-adv-x="1649" 
d="M733 1973q302 -131 302 -162q0 -117 -116 -163h-23q-78 0 -163 70h-46l-93 -70h-46q-34 0 -70 70v69q102 186 255 186zM873 1253q696 -89 696 -557v-70q-93 -4 -93 -185q-278 -465 -673 -465h-23q-491 0 -697 418q-23 90 -23 186v23q0 235 371 534l442 93v23zM942 998
l-116 23h-46q-427 0 -534 -464q109 -395 511 -395h69q355 0 534 488v116q0 204 -325 302q-93 -47 -93 -70z" />
    <glyph glyph-name="otilde" unicode="&#xf5;" 
d="M617 1811q22 0 140 -93l139 23q93 -35 93 -70v-46q0 -186 -186 -186q-24 0 -232 139q0 -33 -70 -69h-46q-70 23 -70 139q136 163 232 163zM919 1277q581 -84 581 -581v-23q-182 -650 -906 -650q-251 31 -441 232q-64 122 -93 255q0 453 697 743q132 0 162 24zM919 1137
q0 -162 -348 -162q-302 -228 -302 -465q0 -220 395 -325q324 0 603 372l47 139q0 285 -302 418z" />
    <glyph glyph-name="odieresis" unicode="&#xf6;" horiz-adv-x="1487" 
d="M548 1973q92 -35 92 -70q0 -110 -139 -185h-46q-70 23 -70 139v23q38 93 163 93zM780 1950q139 0 139 -93q-23 -139 -70 -139h-69q-93 37 -93 162zM826 1230q53 -101 372 -139q209 -125 209 -232q-172 -883 -697 -883q-650 76 -650 581v23q0 256 279 511q188 139 487 139
zM269 580v-23q0 -322 418 -395q395 0 511 697q-99 116 -256 116h-46q-604 0 -604 -302q-23 0 -23 -93z" />
    <glyph glyph-name="oslash" unicode="&#xf8;" horiz-adv-x="1672" 
d="M1221 1555h46q47 0 47 -70q-163 -315 -163 -394q441 -224 441 -534v-140q0 -283 -510 -557h-209q-709 0 -813 650q0 283 395 534q162 93 232 93h278q163 418 256 418zM803 928v-46l-232 23q-302 -226 -302 -418v-23q97 -325 302 -325q69 0 302 789h-70zM1082 928
q-76 0 -279 -836l46 -23h24q510 48 510 418v93q0 211 -301 348z" />
    <glyph glyph-name="ugrave" unicode="&#xf9;" horiz-adv-x="1324" 
d="M455 2112h46q148 -116 302 -139l70 -93v-23q-38 -93 -163 -93h-46q-230 142 -279 256v23q0 33 70 69zM1035 1253q209 0 209 -162q-46 -544 -162 -743q-203 -325 -488 -325q-422 0 -511 534q-23 40 -23 93v301q0 59 46 209h117l46 -23q-23 -232 -23 -348q0 -557 394 -557
q395 127 395 882q-46 0 -46 46v47q7 46 46 46z" />
    <glyph glyph-name="uacute" unicode="&#xfa;" horiz-adv-x="1324" 
d="M617 1880q106 -45 116 -93v-69q-149 -211 -209 -233h-46q-33 0 -70 70q0 116 209 325zM989 1277h116q139 -68 139 -279v-116q-138 -859 -720 -859q-441 116 -441 464q-23 0 -23 23v47q0 52 23 93q0 23 -23 23q0 487 139 487q116 -14 116 -139v-46q0 -101 -46 -186
q0 -23 23 -23l-23 -163v-23q59 -348 325 -348q359 0 464 743q-69 153 -69 209v93z" />
    <glyph glyph-name="ucircumflex" unicode="&#xfb;" horiz-adv-x="1347" 
d="M571 1973q34 -80 255 -139v-116q-46 -93 -69 -93q-174 0 -256 116q-116 -139 -116 -186h-93q-35 0 -69 93q120 325 348 325zM1128 1346q102 -158 139 -441q0 -333 -302 -673q-88 -70 -208 -70h-47q-238 0 -487 232q-163 138 -163 604v70q0 23 23 23l-23 46q23 140 70 140
h69q34 0 70 -70v-279q0 -413 232 -464q0 -41 256 -93q215 0 278 511v186q-46 51 -70 255q14 23 163 23z" />
    <glyph glyph-name="udieresis" unicode="&#xfc;" horiz-adv-x="1347" 
d="M780 1834l23 -47v-93q0 -36 -93 -92h-93q-53 0 -69 116q0 116 232 116zM339 1787q106 -45 116 -93v-92q0 -34 -70 -70h-116q0 70 -70 70v46q0 139 140 139zM176 1253q139 0 139 -464q0 -511 349 -511q301 134 301 348q31 0 93 372v70l-69 92v24q23 69 139 69
q139 0 139 -209q-85 -952 -580 -952h-139q-260 0 -372 302q-70 256 -116 790z" />
    <glyph glyph-name="yacute" unicode="&#xfd;" horiz-adv-x="1394" 
d="M896 1648h23q31 0 116 -116q0 -46 -255 -325h-70q-46 0 -46 46v47q0 176 232 348zM1198 1207h93l23 -116q0 -140 -232 -279q-558 -1017 -558 -1346l-93 -70h-92q-93 38 -93 162v116q234 194 371 651v46q-58 0 -232 302q-178 182 -325 255v116q0 34 70 70h116
q365 -365 487 -534h24q0 33 348 604q40 23 93 23z" />
    <glyph glyph-name="thorn" unicode="&#xfe;" horiz-adv-x="1417" 
d="M153 1857q85 -23 139 -93l-23 -232v-139h209q23 0 23 -24q45 24 70 24q743 -168 743 -581l23 -93q0 -452 -279 -510q-178 0 -371 -47q-46 0 -348 70h-47q-23 -206 -23 -256l23 -46q-45 -106 -93 -116h-93q0 46 -46 46v70q46 339 46 371v47q0 180 -23 325q23 126 23 255
q-46 151 -46 209v70q0 23 23 23l-23 47q0 132 23 162q-23 126 -23 209v163q36 0 93 46zM269 1091l23 -116q-23 -198 -23 -325l23 -47l-23 -46q23 -186 325 -186h209q325 0 325 279q-63 487 -441 487q0 23 -163 47q-40 -24 -93 -24v24q-31 0 -162 -93z" />
    <glyph glyph-name="ydieresis" unicode="&#xff;" horiz-adv-x="1185" 
d="M315 1602l140 -117q0 117 209 117q69 -77 69 -117q-18 -79 -139 -139q-139 0 -139 93q-47 0 -47 -116h-116q-31 0 -116 116v23q0 140 139 140zM1035 1184q70 -90 70 -140q0 -41 -325 -603v-24q19 0 139 -185q0 -121 -70 -140h-23q-116 0 -116 70h-23q-85 -69 -325 -673
q-58 -227 -116 -232h-70q-93 37 -93 162q276 466 441 929q-258 243 -464 557v139l163 24q223 -372 255 -372l139 -139q54 0 186 302q35 325 209 325h23z" />
    <glyph glyph-name="Aogonek" unicode="&#x104;" horiz-adv-x="1649" 
d="M873 1927q0 -64 209 -511q0 -89 487 -1370q-68 -163 -209 -163q-69 90 -69 140q-171 0 -233 -256q24 -93 93 -93q18 0 140 24q116 0 116 -186q-93 -12 -93 -70h-70q-395 56 -395 372q224 441 418 441l-139 441q-255 -23 -255 -46l-116 23h-209q-36 -7 -163 -511
q-162 -230 -162 -302h-117q-46 0 -46 70l255 580q47 361 325 1161l-23 47q0 209 256 209zM757 1532q-140 -401 -140 -650l140 -23h162q58 46 116 46l-209 627h-69z" />
    <glyph glyph-name="aogonek" unicode="&#x105;" horiz-adv-x="1487" 
d="M571 1300h23q603 0 697 -256q116 -230 116 -348v-232q0 -23 -24 -23l24 -47v-441q0 -171 -70 -186q-163 0 -163 140l-46 -24l-46 24q-24 -45 -24 -70q0 -62 279 -163v-46q-1 -33 -93 -116q-371 70 -371 255l23 116l-325 -46q-511 91 -511 372q28 510 232 510
q44 93 557 116q112 0 325 -116v47q0 325 -557 325h-46l-23 116zM269 348v-139q74 -163 348 -163q0 -23 23 -23q45 23 70 23v-23l325 93l47 -24q40 24 92 24q0 -24 24 -24q0 117 23 117l-23 46v70q0 52 23 92q0 117 -116 117q-170 139 -325 139q-488 -46 -488 -256
q-23 0 -23 -69z" />
    <glyph glyph-name="Cacute" unicode="&#x106;" horiz-adv-x="1440" 
d="M1198 2391l69 -93v-70q0 -47 -371 -255q-116 -186 -232 -186q-34 0 -70 70v93q288 311 604 441zM1314 1834l46 -70v-46q0 -163 -162 -163q0 47 -47 47h-46q-488 0 -836 -836l-23 -116l23 -47l-23 -93q0 -371 534 -371q219 38 441 232h93q46 -76 46 -139q0 -153 -580 -325
h-23q-603 0 -697 510v302q54 425 627 952q348 163 627 163z" />
    <glyph glyph-name="cacute" unicode="&#x107;" horiz-adv-x="1510" 
d="M896 2089q46 -7 46 -46v-70l-278 -255h-47q-33 0 -69 69v93q149 209 348 209zM965 1555q93 -35 93 -70v-162q-24 0 -69 -23l-163 23q-347 0 -580 -488l23 -46l-23 -46q0 -256 511 -256l46 23l46 -23q25 0 70 23q197 -23 325 -23h139q47 -7 47 -46v-70q0 -23 -93 -93
l-534 47l-46 -24q-697 0 -697 465q0 206 279 557q448 232 626 232z" />
    <glyph glyph-name="Ccircumflex" unicode="&#x108;" horiz-adv-x="1835" 
d="M1105 2484q67 0 278 -256q349 -54 349 -162v-70q-45 -106 -93 -116h-47q-82 0 -418 279h-69q-91 0 -302 -209h-70q-33 0 -69 70q0 104 325 394q0 23 116 70zM1198 1787h69q441 0 441 -185q-34 -93 -69 -93h-93q-107 93 -325 93q-364 0 -743 -488q-232 -375 -232 -604
q183 -557 580 -557q52 0 93 -23q534 64 534 186q23 101 116 139h93q93 -46 93 -139q0 -229 -511 -325q-36 0 -93 -47h-325q-380 0 -673 418q-93 186 -93 255v209q40 281 371 743q280 294 651 395q38 23 116 23z" />
    <glyph glyph-name="ccircumflex" unicode="&#x109;" horiz-adv-x="1278" 
d="M733 2136l209 -163q0 23 23 23q0 -36 47 -93q0 -162 -186 -162q-116 38 -116 139h-23q-16 0 -209 -209h-47q-33 0 -69 70v23q0 174 348 372h23zM640 1393q558 -41 558 -163v-46q-17 -116 -70 -116h-23q-213 125 -348 139q-363 0 -488 -534v-70q0 -170 209 -278
q165 -24 186 -24q203 18 255 70q23 0 23 -23l47 23h46q63 0 139 -46q0 -186 -139 -186q-449 -32 -464 -47q-334 0 -511 465v116q0 183 279 557q161 108 301 163z" />
    <glyph glyph-name="Ebreve" unicode="&#x114;" horiz-adv-x="1997" 
d="M710 2321q63 -154 139 -185h70q232 39 232 185h70q139 0 139 -139q0 -124 -371 -255h-70q-371 59 -371 278q0 79 162 116zM501 1718h70q38 0 69 -163q150 0 302 -23q361 46 581 116h69q47 -7 47 -46v-117q0 -56 -650 -139h-209q-23 0 -23 23q-256 0 -256 -255
q-46 -229 -46 -255v-24q316 24 371 70q139 0 139 -162v-24q0 -33 -69 -69h-47q-69 0 -69 23q-395 -15 -395 -93q-23 -232 -70 -325q47 -7 47 -46v-117q69 0 69 24l117 -24q797 93 1044 93h140q52 0 93 24q92 -35 92 -70v-47q0 -139 -162 -139q-161 47 -279 47
q-342 0 -998 -117v24q-23 0 -23 -24l-116 24l-47 -24q-132 0 -232 209q116 248 371 1579z" />
    <glyph glyph-name="eogonek" unicode="&#x119;" horiz-adv-x="1487" 
d="M849 1393q239 0 465 -325q46 -187 46 -233v-23q0 -39 -139 -69l-813 69q-40 -23 -93 -23q0 33 -69 70q0 -256 -23 -256q0 -398 557 -487q384 64 464 162h23q116 0 140 -93q0 -192 -650 -278q69 -125 69 -163q12 0 93 23l46 -23l47 23q93 -34 93 -69v-24
q-63 -162 -232 -162q0 46 -47 46h-116l-70 93q-38 0 -162 325q-418 158 -418 511v302q0 395 395 580q273 24 394 24zM339 1044v-46h23q325 0 720 -47l23 47q0 191 -395 232q-241 0 -371 -186z" />
    <glyph glyph-name="Gcircumflex" unicode="&#x11c;" horiz-adv-x="1672" 
d="M1035 2484h116q0 -84 349 -325l23 -47q-5 -50 -140 -139q-91 0 -301 209h-47q-458 -488 -511 -488h-46q-33 0 -70 70v23q237 242 627 697zM1314 1764v-23l46 23q186 -14 186 -70q0 -162 -186 -232l-93 93h-93q-576 0 -882 -743q-23 -90 -23 -186v-139q0 -328 604 -487
h139q276 98 371 255v279q0 61 -348 116q-45 -24 -70 -24q-69 77 -69 117q23 92 139 92h70q23 0 23 -23l46 23q418 -84 418 -232q0 -766 -209 -766l-92 46q-300 -116 -349 -116q-372 29 -766 395q-15 0 -93 139v93q0 96 -23 186q25 364 302 766q26 0 348 279q145 69 604 139z
" />
    <glyph glyph-name="gcircumflex" unicode="&#x11d;" horiz-adv-x="1417" 
d="M733 1880h47q135 -53 209 -186h23v-162l-139 -47q-70 0 -116 140h-47l-209 -232h-46q-47 0 -47 46v46q0 87 232 372q41 23 93 23zM849 1300q418 0 418 -302q38 0 70 -209q0 -96 -116 -418q0 -312 -23 -371q0 -24 23 -24q0 -574 -256 -812q-17 0 -139 -24q-360 0 -511 209
v209l47 163h69q34 0 70 -70v-116q0 -23 -23 -23q47 -186 279 -186q178 0 278 418q0 23 -23 23l23 116v140l-23 162q-304 -139 -441 -139h-47q-464 122 -464 604v46q0 170 255 418q146 186 534 186zM269 696v-139q65 -302 279 -302h23q441 0 441 325q0 139 116 139
q0 351 -139 395l-93 -46q-92 23 -163 69q-319 -98 -418 -302q-46 -76 -46 -139z" />
    <glyph glyph-name="Hcircumflex" unicode="&#x124;" horiz-adv-x="1301" 
d="M640 2484h47q168 -190 418 -256l23 -116v-23q-23 -69 -139 -69q-73 0 -279 162q-45 23 -70 23q-78 0 -278 -278h-116q-47 0 -70 139q249 190 372 395q40 23 92 23zM106 1764h140l69 -279q0 -23 -23 -23l23 -278v-372l-23 -46l70 -47q368 0 487 116q61 0 163 -69v23
q-23 776 -70 929l70 46h70q116 0 116 -1277v-46l23 -116h-23l23 -47v-23q0 -273 -70 -418h-46q-65 0 -93 209q0 25 23 70q-23 237 -23 371v139h-23l-441 -116q-256 0 -256 -46q0 -158 -23 -279q23 -152 23 -302q0 -59 -46 -232h-23q-110 0 -163 70q0 44 46 279l-23 46l23 46
q0 47 -23 47q31 350 47 395q0 23 -24 23q24 232 24 348v232q0 259 -47 557q23 45 23 70z" />
    <glyph glyph-name="hcircumflex" unicode="&#x125;" 
d="M780 2182h23q55 0 209 -255q36 0 93 -93q0 -140 -163 -140q-139 55 -139 93v116h-46q-47 0 -93 -139h-116q-47 0 -47 47v69q145 302 279 302zM315 1903l116 -23l-116 -1277v-93q365 405 418 441q140 117 140 163h209q325 -180 325 -395q46 0 93 -580q-31 -302 -117 -302
h-69q-60 0 -93 209q70 111 70 209q-77 627 -233 627h-116q-576 -518 -627 -859q-59 -70 -139 -70q-116 58 -116 232l46 24q0 23 -23 23q124 1386 186 1648z" />
    <glyph glyph-name="dotlessi" unicode="&#x131;" horiz-adv-x="442" 
d="M246 928h69q47 -7 47 -46v-116q0 -23 -23 -23l23 -47q-25 -743 -139 -743h-140q0 52 -23 93q62 192 139 859z" />
    <glyph glyph-name="Jcircumflex" unicode="&#x134;" horiz-adv-x="1254" 
d="M780 2252h46l139 -24h93q116 -120 116 -208v-24q0 -33 -69 -69h-93l-139 116h-47q-90 0 -278 -140h-24q-36 0 -93 93v47q157 188 349 209zM849 1764h24q139 0 139 -139v-93q0 -290 23 -534q-46 -382 -46 -766l23 -163q-65 -348 -232 -348q-18 -116 -186 -116h-116
q-418 241 -418 534l70 46h23l325 -371h139q186 85 186 418q0 217 46 650q0 289 -69 836z" />
    <glyph glyph-name="jcircumflex" unicode="&#x135;" horiz-adv-x="1185" 
d="M803 1996q206 -113 302 -232v-93q0 -36 -93 -93h-93q-12 0 -162 140q0 -32 -117 -116l-116 23v46q86 325 279 325zM873 1416q185 -28 185 -93v-70q-84 -1857 -232 -1857l-69 -209h-117q-580 177 -580 464q59 209 163 209q92 -35 92 -69v-186l209 -139h70q134 0 255 1160
v465l-23 278q47 0 47 47z" />
    <glyph glyph-name="Lslash" unicode="&#x141;" horiz-adv-x="1928" 
d="M571 1718q93 -24 93 -116q-70 -495 -70 -604h46q85 70 163 70h116q0 -53 23 -93q0 -116 -302 -209q-110 0 -139 -604v-139q78 0 116 -23q708 74 1091 162q140 -36 140 -162q0 -121 -70 -140q-63 47 -302 70l-1091 -186l-116 139v93q65 47 93 511h-47l-162 -139
q-93 35 -93 69v24q0 127 325 394q46 883 139 883h47z" />
    <glyph glyph-name="lslash" unicode="&#x142;" horiz-adv-x="953" 
d="M640 1811q47 -77 47 -140q-47 -186 -47 -232v-139q0 -23 -23 -23l23 -47l-23 -139q23 -39 23 -116q-23 0 -23 -24l116 -23q45 23 70 23q0 -46 70 -46v-93q0 -58 -256 -93q-23 -278 -23 -418q46 -151 46 -209q-54 -139 -92 -139q-140 70 -163 70l23 278v24q0 52 -23 92
q23 45 23 70l-185 -162h-93q-34 0 -70 69v93q104 0 371 348q0 140 24 140l-24 46v209q0 23 24 23q-24 45 -24 70q38 464 93 464z" />
    <glyph glyph-name="Nacute" unicode="&#x143;" horiz-adv-x="1719" 
d="M1383 2530l70 -93v-23q-63 -139 -186 -186l-278 -232h-70q-70 24 -70 140q0 92 140 116q300 278 394 278zM1500 1950h69q70 -23 70 -139v-70l-93 -1904q-23 -76 -93 -93q-209 46 -209 256q-53 0 -325 534q-196 597 -441 812q-72 0 -186 -1579l-93 -93h-69q-53 0 -70 117
q139 519 139 1044h24q0 24 -24 24q101 835 140 835q56 47 92 47q95 0 395 -511q354 -795 465 -975q53 -70 69 -70q93 851 93 1231v278q0 64 -46 140q45 106 93 116z" />
    <glyph glyph-name="nacute" unicode="&#x144;" horiz-adv-x="1347" 
d="M896 2066q33 0 69 -70v-69q-39 0 -185 -209q-160 -186 -256 -186q-69 85 -69 162q145 53 348 349q41 23 93 23zM849 1300q372 -81 372 -674l46 -417q-37 -395 -162 -395h-23q-70 140 -70 162q14 233 46 233q0 23 -23 23l23 116q-46 720 -209 720q-162 0 -348 -372
q-162 -305 -209 -604q-17 0 -139 -23l-70 116l23 47q0 23 -23 23l23 232v93q0 197 -46 488q23 92 139 92h24q69 0 69 -394h23q186 464 418 464q0 23 116 70z" />
    <glyph glyph-name="Ohungarumlaut" unicode="&#x150;" horiz-adv-x="1788" 
d="M1291 2530q116 -69 116 -185q-62 0 -186 -140h-47q-52 0 -92 23q-86 -23 -256 -162h-46q-93 35 -93 70v69q0 35 278 232h186q0 93 140 93zM826 1903h116q394 0 581 -371q185 -232 185 -534v-163q-274 -975 -812 -975q-475 0 -720 395q-116 283 -116 580q0 442 534 883
q56 0 139 139q37 0 93 46zM942 1764q0 -209 -209 -209q-249 0 -464 -627l-23 -162q117 -627 371 -627q0 -70 395 -70q293 229 464 627q47 151 47 209v93q-179 766 -581 766z" />
    <glyph glyph-name="ohungarumlaut" unicode="&#x151;" horiz-adv-x="1533" 
d="M664 1927h93q46 -8 46 -47v-69q-93 -150 -93 -233h-116q-33 0 -70 70v46q0 110 140 233zM1058 1927h47l69 -70q0 -76 -92 -279h-24q-56 47 -93 47v139q0 125 93 163zM687 1207q165 -23 186 -23q45 23 69 23q252 0 488 -348l23 -163v-46q0 -211 -279 -511
q-289 -186 -371 -186h-93q-203 0 -511 209q-139 194 -139 348h23l-23 47q266 650 627 650zM849 1044q0 -77 -348 -116q-162 -162 -232 -325v-116q0 -299 511 -348q154 0 371 278q93 104 93 209v70q0 214 -232 348h-163z" />
    <glyph glyph-name="OE" unicode="&#x152;" horiz-adv-x="2067" 
d="M1221 1694l139 -23h47q77 0 116 23l139 -23h186q103 -93 116 -93q-23 -92 -23 -162h-24q-224 69 -394 69h-232q-209 0 -209 -208v-279l162 -47h116q126 0 348 70h24q33 0 69 -70v-162h-23q-164 0 -325 -46l-139 23h-163q-46 -8 -46 -47q23 -40 23 -93h-23
q0 -232 116 -232q145 -47 162 -116l465 70q139 -31 139 -70v-186q-23 -69 -139 -69q-51 116 -163 116q-267 -70 -580 -93q-76 46 -140 46q-277 -92 -348 -92q-557 0 -557 534v23q0 287 255 743q130 158 418 232q186 139 465 139q0 23 23 23zM246 557q0 -25 23 -70l-23 -46
q0 -206 348 -256q371 76 371 163q-69 445 -69 743v186q0 54 -163 69q-292 -91 -394 -371q-93 -237 -93 -418z" />
    <glyph glyph-name="oe" unicode="&#x153;" horiz-adv-x="2439" 
d="M1662 1648q535 0 650 -371v-47q-104 -464 -255 -464q-159 23 -256 23h-93q-23 0 -23 23q-48 -23 -255 -46q0 46 -47 46q-34 0 -69 -93q0 -192 580 -255q95 0 418 23l47 -70v-92q-38 -93 -163 -93h-46q-24 0 -24 23l-46 -23q-430 0 -882 209q-116 -256 -325 -256
q-790 42 -790 372q-23 92 -23 162q256 766 720 766q160 0 394 -232h24q167 395 464 395zM1314 1021l93 70q58 0 278 -70h186l186 116q23 41 23 93q0 163 -325 232q-322 0 -441 -441zM757 1323q-62 -175 -117 -186l-116 23q-177 -143 -232 -394q0 -70 -23 -70
q0 -279 464 -279q0 -23 93 -23q222 0 279 372l-23 139v163q-158 255 -325 255z" />
    <glyph glyph-name="Sacute" unicode="&#x15a;" horiz-adv-x="1765" 
d="M1291 2228q185 0 185 -116q-6 -79 -325 -232q0 -23 -69 -23l-47 70v69q115 146 256 232zM1151 1741h47l69 -47h279q139 -14 139 -69v-140q0 -46 -46 -46h-47q-250 70 -580 93q-534 -152 -534 -348q-47 -93 -70 -93q0 -157 349 -186q743 -70 743 -232q69 0 92 -325
q0 -308 -209 -534q-150 -123 -626 -186q-278 0 -697 488v116q7 46 46 46h70q334 -487 673 -487q558 144 558 557v23q0 302 -372 302l-46 -23q-743 96 -743 325q-23 0 -23 69q0 348 557 627q339 23 371 70z" />
    <glyph glyph-name="sacute" unicode="&#x15b;" horiz-adv-x="1208" 
d="M757 1973q92 -35 92 -70v-69q-253 -325 -325 -325h-23q-33 0 -70 69q0 75 209 302q0 61 117 93zM849 1462q93 -130 93 -162q-39 -116 -209 -116q-93 11 -93 69h-116q-232 -28 -232 -93q79 -66 441 -209q395 -202 395 -557q0 -339 -441 -418l-47 24q-81 -24 -92 -24
q-203 74 -325 233q-70 23 -70 139v46q7 47 46 47h70q215 -230 279 -256h92q279 0 279 302q-135 248 -418 348q-441 132 -441 372q0 255 789 255z" />
    <glyph glyph-name="Scircumflex" unicode="&#x15c;" horiz-adv-x="1556" 
d="M896 2437h46q168 -191 349 -232l46 -93q-41 -162 -93 -162q-81 0 -348 186q-186 -142 -186 -209h-23q-121 0 -139 69v70q296 371 348 371zM942 1811q279 0 441 -186v-116h-69q-234 93 -325 93v23l-47 -23h-162q-418 -99 -418 -302q336 -256 812 -256q185 0 302 -603
q0 -492 -209 -581q-173 -116 -302 -116q-905 129 -905 534v23h70q254 -277 627 -325q0 -46 208 -46q326 120 326 418v23q-76 511 -256 511q-431 0 -766 232l-116 163v23q0 23 23 23l-23 46v47q329 395 789 395z" />
    <glyph glyph-name="scircumflex" unicode="&#x15d;" horiz-adv-x="1208" 
d="M478 1857q95 0 279 -186v-116q-37 0 -93 -46q-74 0 -186 93h-23q-98 -93 -186 -93h-23q-47 0 -47 46q93 302 279 302zM849 1462q93 -35 93 -69v-93q-23 -70 -139 -70v23q-464 -110 -464 -255q705 -144 719 -348q32 0 70 -186q0 -344 -418 -488q-25 0 -70 -23
q-472 83 -580 232v93q0 178 93 209h46q47 -7 47 -46v-93l-23 -47q201 -139 348 -139q249 0 325 279v93q0 163 -650 278q-116 90 -116 186v70q87 191 418 301z" />
    <glyph glyph-name="Scaron" unicode="&#x160;" 
d="M1174 2345h93q37 0 93 -93v-93q0 -36 -93 -93h-23q-23 0 -23 23q-35 0 -372 -186q-24 0 -69 -23q-372 180 -372 348v47l116 23h70q0 -98 139 -162h47q127 0 394 209zM989 1857q415 -65 511 -116q-32 -163 -93 -163h-24q-278 93 -301 93h-163q-382 0 -557 -348
q0 -240 650 -302q256 -171 325 -464v-47q0 -719 -650 -719q0 32 -418 162q-209 137 -209 325q35 93 70 93h46q25 0 116 -209q211 -139 465 -186q299 0 394 488q0 342 -487 441l-47 -23q-441 162 -441 418v46q187 488 650 488q71 0 163 23z" />
    <glyph glyph-name="scaron" unicode="&#x161;" horiz-adv-x="1138" 
d="M315 1811q103 -117 209 -117q45 24 70 24l46 -24q45 24 70 24l47 -70v-70q-2 -32 -117 -93l-46 24l-46 -24q-349 0 -349 279v23zM594 1184q122 -24 232 -24q52 0 93 24q116 -33 116 -163q0 -36 -93 -93q-55 0 -185 70q-24 0 -24 -23l-116 23q-229 0 -348 -186v-46
q0 -64 232 -93q71 46 372 70q185 0 185 -442v-92q0 -302 -580 -302q-372 0 -372 325v23q47 93 140 93l46 -116q-23 -45 -23 -70q111 -70 209 -70q395 0 395 256v46q-47 76 -47 140h-93l-116 -24v24l-162 -47q-297 0 -395 209v70q0 325 534 418z" />
    <glyph glyph-name="Ubreve" unicode="&#x16c;" horiz-adv-x="1858" 
d="M1058 2391h47q162 0 162 -163q-85 -108 -441 -208q-278 31 -278 185q0 75 185 93l24 -46q301 37 301 139zM315 1811q70 0 140 -140q-116 -193 -140 -348l24 -46q-38 -66 -70 -488q23 -45 23 -70l-23 -46q0 -296 395 -511q38 -23 116 -23h23q512 0 720 859v325q0 23 23 23
l-23 47q0 23 23 23l-23 46v163l23 116h162l70 -232q-18 -93 -46 -93q0 -23 23 -23q0 -711 -418 -1277q0 -88 -372 -186l-208 -23q-295 0 -627 441l-70 255q0 830 209 1208h46z" />
    <glyph glyph-name="ubreve" unicode="&#x16d;" horiz-adv-x="1394" 
d="M780 1880q46 -76 46 -139v-70q-235 -162 -371 -162q-256 39 -256 185q85 70 163 70q148 -46 162 -46q140 162 256 162zM1012 1462h139q50 0 163 -441q0 -368 -349 -743q-278 -186 -394 -186q-465 149 -465 488q-28 0 -46 279q38 394 93 394h93q40 0 69 -116
q-46 -85 -46 -186v-139q0 -464 371 -464h24q294 162 418 557v70q0 108 -70 487z" />
    <glyph glyph-name="Uhungarumlaut" unicode="&#x170;" horiz-adv-x="1463" 
d="M989 2298q93 -35 93 -70q0 -208 -140 -208l-23 -93h-93q-46 0 -46 69q-52 -6 -140 -209l-69 -46h-23q-47 0 -47 70q0 401 279 464v-23l46 -47zM1267 1694q116 -32 116 -162q0 -1413 -418 -1672q0 -53 -371 -116q-309 0 -418 186q-93 348 -116 696q29 0 46 674h24
q0 23 -24 23q0 25 24 70l-24 232q119 46 186 46q7 -46 47 -46q-70 -504 -70 -999q0 -23 -23 -23q70 -650 278 -650q367 0 511 302q86 239 163 696q0 24 -24 24l24 162v116q0 151 -47 325q39 116 116 116z" />
    <glyph glyph-name="uhungarumlaut" unicode="&#x171;" horiz-adv-x="1371" 
d="M571 1857h23q46 0 70 -186h-24l24 -46q-45 -106 -93 -116q-140 0 -140 139q0 209 140 209zM873 1787h46q46 -7 46 -46v-163q0 -33 -69 -69q-139 0 -139 139v116zM1035 1230q256 0 256 -395q-24 -253 -233 -580q-336 -186 -371 -186q-485 0 -604 697q0 23 23 23
q-46 204 -46 325q95 46 139 46q34 -1 116 -92l-23 -163q0 -604 418 -604q372 225 372 627q-29 99 -117 232q0 34 70 70z" />
    <glyph glyph-name="Ydieresis" unicode="&#x178;" horiz-adv-x="1278" 
d="M339 2136q162 -41 162 -163v-23q0 -36 -93 -93h-23q-162 0 -162 186zM710 2112q116 -32 116 -162v-23q0 -32 -116 -116q-116 32 -116 162v47q10 47 116 92zM130 1602h46q87 0 186 -558q39 0 93 -371h23l441 673q147 139 232 139l47 -69v-70q-233 -180 -325 -395
q-346 -564 -349 -835l47 -163q0 -36 -93 -93q-139 48 -139 186v302l-279 1207z" />
    <glyph glyph-name="Zacute" unicode="&#x179;" horiz-adv-x="2137" 
d="M1174 2252l47 -70v-116q-159 -15 -348 -255q-45 -24 -70 -24q-70 85 -70 163q298 302 349 302h92zM478 1671q1050 -85 1114 -186v-23q-50 -246 -1161 -1346v-24q47 0 47 -23q23 0 23 23l116 -23q52 0 93 23q41 -23 93 -23l46 23q45 -23 70 -23l46 23h70v24l47 -24
q412 24 673 24l139 23q163 -36 163 -139q-39 -117 -116 -117q-209 47 -302 47q-596 0 -1022 -47q-132 24 -371 24h-47q-120 0 -139 69v93l371 279q652 644 860 998v47q-395 46 -395 69q-23 0 -23 -23l-116 23h-163q-52 0 -93 -23l-46 23l-140 -23h-69q0 36 -47 93v70z" />
    <glyph glyph-name="zacute" unicode="&#x17a;" horiz-adv-x="1487" 
d="M803 1787h139l23 -116v-23q-220 -183 -255 -279h-23q-121 0 -139 70v70q238 275 255 278zM223 1184h255q83 0 209 -24q30 24 162 24q24 0 24 -24l46 24q209 -42 209 -93q0 -205 -348 -534l-302 -325q7 -47 46 -47h47q511 47 534 47q302 -47 302 -116v-70l-24 -116
q-332 93 -348 93q-631 -47 -766 -47q0 -46 -46 -46h-24q-139 81 -139 209v23q445 348 464 348q0 41 349 418v47h-24q-29 0 -232 23q-134 0 -394 -70h-24q-33 0 -69 70v93q0 36 93 93z" />
    <glyph glyph-name="Zdotaccent" unicode="&#x17b;" horiz-adv-x="1905" 
d="M849 2252q93 -47 93 -140q-23 -139 -69 -139h-24q-185 0 -185 209q14 70 185 70zM431 1718q58 0 349 -47l116 23q45 -23 69 -23t24 23q650 -46 650 -116v-162q0 -151 -441 -581q-33 0 -441 -394q-322 -215 -326 -256v-46h93q53 0 93 23q23 0 23 -23l511 70l47 -24
q267 24 464 70q163 -41 163 -93v-23q0 -163 -117 -163q-162 55 -162 70l-116 -23h-163q-577 -70 -1161 -70l-46 70v46q4 56 395 348q659 559 928 883q47 76 47 139v23q-239 23 -279 47q-81 -24 -93 -24q-197 24 -301 24q-24 0 -24 -24l-116 24h-186q-69 23 -69 139
q0 33 69 70z" />
    <glyph glyph-name="zdotaccent" unicode="&#x17c;" horiz-adv-x="1533" 
d="M571 1671q209 0 209 -209v-23l-163 -46q-93 90 -93 162zM664 1277v-24q23 0 23 24l93 -24q11 0 93 24q209 -44 209 -93q0 -212 -233 -418q-203 -227 -394 -395v-23h93q52 0 92 23q24 0 24 -23q349 30 394 46q24 0 24 -23l116 23h116q139 -14 139 -69v-24q0 -116 -93 -139
l-46 23q-23 0 -23 -23l-163 23h-116l-859 -69q-93 23 -93 139v70q0 24 279 185q486 455 510 558l-116 23h-93l-116 -23v23l-46 -23h-139q-163 0 -163 -70h-23q-36 0 -93 93v69q38 93 163 93h278z" />
    <glyph glyph-name="Zcaron" unicode="&#x17d;" horiz-adv-x="1951" 
d="M1221 2112h93q69 0 69 -92q-168 -279 -418 -279q-325 55 -325 116q-23 38 -23 116v47q37 0 93 46l325 -116q0 29 186 162zM803 1602q410 -29 580 -93q24 0 24 23q232 -29 232 -93v-116l-1115 -1045l-116 -162l47 -24h185l140 24q23 0 23 -24l697 117v-24l46 24h116
q209 0 209 -209q-23 -45 -23 -70h-93q-78 0 -163 70l-1416 -117q-116 27 -116 186q52 0 673 650q46 0 558 511q23 0 69 93v23q-224 47 -441 47q-72 0 -441 -24q-93 35 -93 70v46q0 37 93 93h209q78 0 116 24z" />
    <glyph glyph-name="zcaron" unicode="&#x17e;" horiz-adv-x="1417" 
d="M849 1834h70q70 -15 70 -186q-260 -163 -395 -163h-46q-233 32 -233 209q8 47 47 47h116l70 -47h92zM408 1253q145 -23 325 -23q45 23 70 23v-23l46 23q266 -69 395 -185q0 -205 -232 -279q-62 -85 -557 -418l-70 -93v-23h23q82 0 743 139q99 0 186 -185v-93l-116 -24
q-23 70 -139 70q-771 -139 -883 -139q-139 36 -139 162q0 109 627 581q78 0 255 209v46q-174 47 -185 47l-627 -47l-24 116q0 100 302 116z" />
    <glyph glyph-name="florin" unicode="&#x192;" horiz-adv-x="1301" 
d="M1082 1764q139 -14 139 -70v-92q0 -24 -279 -186l-93 -116q24 0 24 -23q-210 0 -349 -627l47 -24h162q172 0 186 -92q0 -50 -162 -140l-233 23l-23 -46v-46q0 -78 23 -116q-23 -279 -46 -279q0 -23 23 -23q0 -322 -255 -581h-70q-33 0 -70 70v23q0 55 163 302
q70 378 70 418q-24 122 -24 232v46h-92q-125 0 -163 93v24q0 33 70 69h209q0 590 743 1161z" />
    <glyph glyph-name="circumflex" unicode="&#x2c6;" horiz-adv-x="722" 
d="M60 1079l232 355h118l232 -355h-58l-233 216l-233 -216h-58z" />
    <glyph glyph-name="caron" unicode="&#x2c7;" horiz-adv-x="722" 
d="M60 1434h58l233 -214l233 214h58l-232 -356h-118z" />
    <glyph glyph-name="breve" unicode="&#x2d8;" horiz-adv-x="724" 
d="M60 1349h51q17 -73 75 -107t167 -34t166 33.5t74 107.5h51q-20 -133 -94 -201.5t-197 -68.5q-122 0 -197 69t-96 201z" />
    <glyph glyph-name="dotaccent" unicode="&#x2d9;" horiz-adv-x="355" 
d="M74 1289l69 72q6 6 13 9t14 3q6 0 12.5 -3t12.5 -9l71 -76q5 -4 7 -10t2 -14q-1 -9 -3 -15t-8 -12l-71 -76q-12 -11 -16 -13.5t-7 -2.5q-10 0 -16.5 2.5t-10.5 8.5l-75 87q-4 4 -6 9.5t-2 13.5q0 6 3 12.5t11 13.5z" />
    <glyph glyph-name="ring" unicode="&#x2da;" horiz-adv-x="495" 
d="M136 1257q0 -42 29 -71t71 -29t71 29t29 71q0 40 -29.5 69.5t-70.5 29.5t-70.5 -29.5t-29.5 -69.5zM60 1257q0 75 51 126t125 51q76 0 127.5 -51.5t51.5 -125.5q0 -75 -51.5 -126.5t-127.5 -51.5q-74 0 -125 51.5t-51 126.5z" />
    <glyph glyph-name="ogonek" unicode="&#x2db;" horiz-adv-x="508" 
d="M331 0q-71 -62 -110.5 -119.5t-39.5 -112.5q0 -47 27 -75t73 -28q40 0 69.5 15.5t49.5 48.5l28 -16q-36 -63 -90.5 -97t-119.5 -34q-70 0 -114 35.5t-44 90.5q0 76 60.5 156.5t161.5 135.5h49z" />
    <glyph glyph-name="tilde" unicode="&#x2dc;" horiz-adv-x="714" 
d="M634 1382q-20 -103 -68.5 -154t-126.5 -51h-4q-50 0 -113 23q-66 24 -114 24q-39 0 -60.5 -20.5t-33.5 -71.5h-54q19 106 68 158.5t129 52.5q46 -1 113 -24q64 -23 112 -23h4q36 0 58 20t36 66h54z" />
    <glyph glyph-name="hungarumlaut" unicode="&#x2dd;" horiz-adv-x="729" 
d="M60 1079l144 273q24 44 45.5 63t46.5 19q28 0 48 -20t20 -47q0 -16 -10.5 -35t-30.5 -41l-205 -212h-58zM345 1079l144 273q24 44 45.5 63t46.5 19q28 0 48 -20t20 -47q0 -16 -10.5 -35t-30.5 -41l-205 -212h-58z" />
    <glyph glyph-name="quoteleft" unicode="&#x2018;" horiz-adv-x="604" 
d="M245 1415h-23q-162 0 -162 302q0 187 301 394h93q46 0 70 -162q-186 -96 -186 -139v-24q147 0 186 -139q-80 -232 -279 -232z" />
    <glyph glyph-name="quoteright" unicode="&#x2019;" horiz-adv-x="604" 
d="M339 2111h23q162 0 162 -302q0 -187 -301 -394h-93q-46 0 -70 162q186 96 186 139v24q-147 0 -186 139q80 232 279 232z" />
    <glyph glyph-name="quotedblleft" unicode="&#x201c;" horiz-adv-x="1254" 
d="M245 1415h-23q-162 0 -162 302q0 187 301 394h93q46 0 70 -162q-186 -96 -186 -139v-24q147 0 186 -139q-80 -232 -279 -232zM895 1415h-23q-162 0 -162 302q0 187 301 394h93q46 0 70 -162q-186 -96 -186 -139v-24q147 0 186 -139q-80 -232 -279 -232z" />
    <glyph glyph-name="quotedblright" unicode="&#x201d;" horiz-adv-x="1254" 
d="M339 2111h23q162 0 162 -302q0 -187 -301 -394h-93q-46 0 -70 162q186 96 186 139v24q-147 0 -186 139q80 232 279 232zM989 2111h23q162 0 162 -302q0 -187 -301 -394h-93q-46 0 -70 162q186 96 186 139v24q-147 0 -186 139q80 232 279 232z" />
    <glyph glyph-name="dagger" unicode="&#x2020;" horiz-adv-x="1393" 
d="M501 2041h116q69 -23 69 -139q-46 -568 -46 -742l46 -24h163q96 0 255 24q209 -71 209 -163l-23 -162q-136 0 -232 93h-24q-69 0 -69 -24l-116 24h-93q-84 0 -139 -70q46 -476 46 -696l-23 -162l23 -47q0 -116 -116 -185h-69q-34 0 -70 69v47q0 26 46 255v510l-23 139
q23 39 23 116h-46q-209 0 -209 -92q-139 46 -139 162v46q0 70 371 116q47 290 47 580q-24 206 -24 256q47 0 47 69z" />
    <glyph glyph-name="daggerdbl" unicode="&#x2021;" horiz-adv-x="1694" 
d="M663 1624q88 0 139 -441v-23l47 23h325q171 0 185 -93l-46 -139q-255 18 -255 46q-279 -23 -279 -69v-232q0 -24 -23 -24q23 -139 46 -139q462 47 511 47q301 -149 301 -302q0 -70 -92 -70q-89 0 -186 140q-93 0 -93 23l-116 -23h-301q-47 -8 -47 -47q0 -277 70 -603
q-81 -93 -163 -93h-23q-69 157 -69 186q23 231 23 348q0 101 -47 209l-46 -24q-23 0 -23 24q-45 -24 -70 -24q-24 0 -69 24q-165 -47 -256 -47q-46 76 -46 139q0 69 93 140q175 -47 325 -47h69q47 0 47 47v371h-24l-440 -47l-47 70v46q0 111 487 140v69q-46 335 -46 348
q76 47 139 47z" />
    <glyph glyph-name="ellipsis" unicode="&#x2026;" horiz-adv-x="2055" 
d="M466 689q98 -156 37 -262l-23 -40q-200 -99 -315 -33q-65 119 -105 142l43 28q3 50 15 72q253 148 289 128zM1172 689q98 -156 37 -262l-23 -40q-201 -99 -315 -33q-66 119 -105 142l43 28q2 50 15 72q253 148 288 128zM1878 689q97 -156 36 -262l-23 -40
q-200 -99 -315 -33q-65 119 -105 142l43 28q3 50 15 72q253 148 289 128z" />
    <glyph glyph-name="Euro" unicode="&#x20ac;" horiz-adv-x="2205" 
d="M1614 1693l70 -93v-116q0 -33 -70 -69h-92q-85 69 -163 69q-510 -75 -510 -208h46q97 0 255 23q93 -35 93 -70v-46q0 -116 -93 -139q-90 46 -255 46h-93q-180 0 -232 -139v-47q0 -139 140 -139q198 0 371 70l69 -116q-23 -139 -69 -139h-70l-278 -24q209 -232 441 -232
q719 140 719 256q75 46 116 46q106 -45 116 -93q0 -232 -279 -232q0 -93 -765 -185q-276 0 -627 440h-324q-70 24 -70 140q0 36 93 92h162l47 -23q0 244 46 302h-70l-139 -23q-116 23 -116 116q0 116 209 116h278q253 371 836 371z" />
    <glyph glyph-name="trademark" unicode="&#x2122;" horiz-adv-x="2460" 
d="M1498 2041q209 0 209 -209q78 -348 139 -348l116 163q0 23 -23 23q0 193 209 255q192 0 209 -626h-23l23 -47v-69q0 -78 -23 -116q46 -262 46 -348q-35 -93 -70 -93h-92l-93 70l23 232v487l-23 116h-23q-167 -418 -256 -418q-162 0 -255 418h-46q-141 -812 -232 -812
q-163 0 -163 162q127 185 279 1044q6 116 69 116zM1081 1948q162 0 162 -162q-23 -38 -23 -116h-116q-93 46 -93 70q-209 -52 -209 -93q0 -203 47 -905l-93 -93h-23q-33 0 -139 139l46 163q-23 351 -23 649v47q-197 -5 -441 -116q-116 14 -116 139v46q0 104 534 116v47h116
q117 0 371 69z" />
  </font>
</defs>
</svg>
